<?xml version="1.0" standalone="no"?>
<!DOCTYPE svg PUBLIC "-//W3C//DTD SVG 1.1//EN" "http://www.w3.org/Graphics/SVG/1.1/DTD/svg11.dtd" >
<svg xmlns="http://www.w3.org/2000/svg">
<metadata>
Created by FontForge 20120731 at Thu May  5 15:23:46 2016
 By admin
</metadata>
<defs>
<font id="iconfont" horiz-adv-x="1024" >
  <font-face 
    font-family="iconfont"
    font-weight="500"
    font-stretch="normal"
    units-per-em="1024"
    panose-1="2 0 6 3 0 0 0 0 0 0"
    ascent="896"
    descent="-128"
    x-height="792"
    bbox="0 -158 2012 903"
    underline-thickness="50"
    underline-position="-100"
    unicode-range="U+0078-E6B3"
  />
<missing-glyph horiz-adv-x="374" 
d="M34 0v682h272v-682h-272zM68 34h204v614h-204v-614z" />
    <glyph glyph-name=".notdef" horiz-adv-x="374" 
d="M34 0v682h272v-682h-272zM68 34h204v614h-204v-614z" />
    <glyph glyph-name=".null" horiz-adv-x="0" 
 />
    <glyph glyph-name="nonmarkingreturn" horiz-adv-x="341" 
 />
    <glyph glyph-name="x" unicode="x" horiz-adv-x="1001" 
d="M281 543q-27 -1 -53 -1h-83q-18 0 -36.5 -6t-32.5 -18.5t-23 -32t-9 -45.5v-76h912v41q0 16 -0.5 30t-0.5 18q0 13 -5 29t-17 29.5t-31.5 22.5t-49.5 9h-133v-97h-438v97zM955 310v-52q0 -23 0.5 -52t0.5 -58t-10.5 -47.5t-26 -30t-33 -16t-31.5 -4.5q-14 -1 -29.5 -0.5
t-29.5 0.5h-32l-45 128h-439l-44 -128h-29h-34q-20 0 -45 1q-25 0 -41 9.5t-25.5 23t-13.5 29.5t-4 30v167h911zM163 247q-12 0 -21 -8.5t-9 -21.5t9 -21.5t21 -8.5q13 0 22 8.5t9 21.5t-9 21.5t-22 8.5zM316 123q-8 -26 -14 -48q-5 -19 -10.5 -37t-7.5 -25t-3 -15t1 -14.5
t9.5 -10.5t21.5 -4h37h67h81h80h64h36q23 0 34 12t2 38q-5 13 -9.5 30.5t-9.5 34.5q-5 19 -11 39h-368zM336 498v228q0 11 2.5 23t10 21.5t20.5 15.5t34 6h188q31 0 51.5 -14.5t20.5 -52.5v-227h-327z" />
    <glyph glyph-name="uniE600" unicode="&#xe600;" horiz-adv-x="1000" 
d="M791 155v533h-530v138h-54v-138h-140v-53h140v-533h531v-138h53v138h144v53h-144zM738 155h-477v480h477v-480z" />
    <glyph glyph-name="uniE601" unicode="&#xe601;" 
d="M710 694q-8 5 -17.5 2.5t-14 -11t-1.5 -17.5t11 -13q91 -47 144 -132t53 -184q0 -97 -50 -179.5t-136 -130.5t-187 -48t-187 48t-136 130.5t-50 179.5q0 100 53 185t145 131q8 5 11 14t-1.5 17t-13.5 10.5t-18 -1.5q-103 -53 -163 -148.5t-60 -207.5q0 -109 56.5 -202
t153 -147t210.5 -54t210.5 54t153 147t56.5 202q0 112 -59.5 207.5t-162.5 147.5zM512 317q10 0 16.5 6.5t6.5 15.5v470q0 10 -6.5 16.5t-16.5 6.5t-16.5 -6.5t-6.5 -16.5v-470q0 -9 6.5 -15.5t16.5 -6.5z" />
    <glyph glyph-name="uniE602" unicode="&#xe602;" 
d="M601.5 777q-92.5 0 -158 -66t-65.5 -158q0 -63 32 -115.5t86 -81.5q-111 -34 -182 -128.5t-71 -214.5q0 -9 6 -15t15 -6t15.5 6t6.5 15q0 86 42 158.5t114.5 115t157.5 42.5h6q91 2 155 67.5t64 156.5q0 92 -65.5 158t-158 66zM601.5 372q-74.5 0 -128 53t-53.5 128
t53 128t128 53t128 -53t53 -128t-53 -128t-127.5 -53zM855 266q-6 7 -15 7t-15 -6.5t-6 -15.5t6 -15q92 -92 92 -223q0 -9 6.5 -15t15 -6t15 6t6.5 15q0 72 -27 137.5t-78 115.5zM375 367v0q0 9 -6 15t-15 6q-58 0 -99 44t-41 106t41 106t99 44q9 0 15 6.5t6 15t-6 15
t-15 6.5q-76 0 -129.5 -56.5t-53.5 -136.5q0 -52 24.5 -96t65.5 -70q-87 -31 -142.5 -111t-55.5 -180q0 -9 6.5 -15t15 -6t15 6t6.5 15q0 109 72.5 186.5t175.5 77.5q9 0 15 6.5t6 15.5z" />
    <glyph glyph-name="uniE603" unicode="&#xe603;" 
d="M512 828q-90 0 -172.5 -35.5t-141.5 -94.5t-94.5 -141.5t-35.5 -172.5t35.5 -172.5t94.5 -141.5t141.5 -94.5t172.5 -35.5t172.5 35.5t141.5 94.5t94.5 141.5t35.5 172.5t-35.5 172.5t-94.5 141.5t-141.5 94.5t-172.5 35.5zM546 145h-68v68h68v-68zM539 247h-59l-10 342
h82z" />
    <glyph glyph-name="uniE604" unicode="&#xe604;" 
d="M109 652h806q10 0 17 7t7 17.5t-7 17.5t-17 7h-806q-10 0 -17 -7t-7 -17.5t7 -17.5t17 -7zM915 408h-806q-10 0 -17 -7t-7 -17t7 -17t17 -7h806q10 0 17 7t7 17t-7 17t-17 7zM915 116h-806q-10 0 -17 -7.5t-7 -17.5t7 -17.5t17 -7.5h806q10 0 17 7.5t7 17.5t-7 17.5
t-17 7.5z" />
    <glyph glyph-name="uniE605" unicode="&#xe605;" 
d="M525 385l393 395q5 5 5 12.5t-5 13t-13 5.5t-13 -5l-393 -395l-392 395q-6 5 -13.5 5t-13 -5.5t-5.5 -13t5 -12.5l393 -395l-393 -394q-5 -6 -5 -13.5t5.5 -13t13 -5.5t13.5 6l392 394l393 -394q5 -6 13 -6t13 5.5t5 13t-5 13.5z" />
    <glyph glyph-name="uniE606" unicode="&#xe606;" 
d="M511.5 793q-118.5 0 -219 -46.5t-158.5 -128t-58 -178.5t57 -182t153 -136l49 -129q18 -31 62 -6l132 67q13 7 25 14q108 9 199 62.5t143 135.5t52 174q0 97 -58.5 178.5t-159 128t-219 46.5zM542 103l-149 -77q-17 -10 -20.5 -9t-12.5 18l-40 112q-93 47 -151 126.5
t-58 166.5q0 85 55 158t147.5 116t198 43t198 -43t147.5 -116t55 -158q0 -81 -50 -156.5t-136 -124.5t-184 -56zM465 438q0 -17 12 -28.5t29 -11.5t29 11.5t12 28.5t-12 29t-29 12t-29 -12t-12 -29zM651 438q0 -17 12 -28.5t29 -11.5t29 11.5t12 28.5t-12 29t-29 12t-29 -12
t-12 -29zM290 438q0 -17 12 -28.5t29 -11.5t29 11.5t12 28.5t-12 29t-29 12t-29 -12t-12 -29z" />
    <glyph glyph-name="uniE607" unicode="&#xe607;" 
d="M646 226h314v-44h-314v44zM440 313q50 26 80.5 76t30.5 111q0 87 -59 148.5t-142.5 61.5t-142.5 -61.5t-59 -148.5q0 -61 30.5 -111t80.5 -76q-80 -28 -133.5 -97t-61.5 -158h35q10 95 76.5 161t158.5 72q1 0 6.5 -1t9 -1t9 1t6.5 1q92 -6 158.5 -72t76.5 -161h35
q-8 89 -61.5 158t-133.5 97zM349 319q-71 0 -122 53t-51 127.5t51 127.5t122.5 53t122 -53t50.5 -127.5t-50.5 -127.5t-122.5 -53zM646 578h314v-44h-314v44zM646 402h314v-44h-314v44zM646 402z" />
    <glyph glyph-name="uniE608" unicode="&#xe608;" 
d="M231 -66q-9 0 -15 7q-5 6 -3.5 14t7.5 13l540 414l-540 416q-7 5 -7.5 13t4 14t12 7t14.5 -4l559 -431q7 -6 7 -15t-7 -15l-560 -429q-5 -4 -11 -4zM231 -66z" />
    <glyph glyph-name="uniE609" unicode="&#xe609;" 
d="M243 -48q-9 0 -14 7q-5 6 -4 13.5t7 12.5l519 398l-519 400q-6 5 -7 12.5t3.5 13.5t12 6.5t13.5 -3.5l538 -415q7 -5 7 -14t-7 -14l-538 -413q-5 -4 -11 -4z" />
    <glyph glyph-name="uniE60A" unicode="&#xe60a;" 
d="M821 594l-143 144l72 71q17 18 42.5 18t42.5 -18l58 -57q18 -18 18 -43t-18 -43zM405 178l-143 144l389 386l143 -143zM147 61l87 233l142 -142zM790 12q15 0 25.5 -10.5t10.5 -25.5t-10.5 -26t-25.5 -11h-642q-15 0 -25.5 11t-10.5 26t10.5 25.5t25.5 10.5h642z" />
    <glyph glyph-name="uniE60B" unicode="&#xe60b;" 
d="M150 -63q-1 11 -1 22q0 89 48.5 165t132.5 120t182 44t182 -44t132.5 -120t48.5 -165q0 -11 -1 -22h62v22q0 80 -33 153q-33 70 -92 124q-94 87 -224 108q76 24 125 90t49 148q0 104 -73 177.5t-176 73.5t-176 -73.5t-73 -177.5q0 -82 49 -148t125 -90
q-130 -21 -224 -108q-59 -54 -92 -124q-33 -73 -33 -153v-22h62zM327 582.5q0 77.5 54 132t131 54.5t131 -54.5t54 -132t-54 -132t-131 -54.5t-131 54.5t-54 132z" />
    <glyph glyph-name="uniE60C" unicode="&#xe60c;" 
d="M706 374q57 77 57 178q0 115 -73.5 197t-177.5 82t-177.5 -82t-73.5 -197q0 -101 57 -178q-50 -17 -81.5 -60t-31.5 -98v-111q0 -70 49 -119t118 -49h280q69 0 118 49t49 119v111q0 55 -31.5 98t-81.5 60zM316 551.5q0 92.5 57.5 158t138.5 65.5t138.5 -65.5t57.5 -158
t-57.5 -158t-138.5 -65.5t-138.5 65.5t-57.5 158zM763 119q0 -52 -40 -89t-97 -37h-228q-57 0 -97 37t-40 89v83q0 45 29.5 78.5t75.5 43.5q66 -52 146 -52t146 52q46 -10 75.5 -43.5t29.5 -78.5v-83z" />
    <glyph glyph-name="uniE60D" unicode="&#xe60d;" 
d="M512 -66q-116 0 -198.5 82.5t-82.5 198.5q0 93 56 168v226q0 93 66 159t159 66t159 -66t66 -159v-226q56 -75 56 -168q0 -116 -82 -198.5t-199 -82.5zM681 609q0 70 -49.5 119.5t-119.5 49.5t-119.5 -49.5t-49.5 -119.5v-169q75 56 169 56t169 -56v169zM687 356h-6v8
q-68 76 -169 76q-93 0 -159 -66t-66 -159t66 -159t159 -66t159 66t66 159q0 79 -50 141zM512 103q-12 0 -20 8t-8 20v112q0 12 8 20.5t20 8.5t20 -8.5t8 -20.5v-112q0 -12 -8 -20t-20 -8z" />
    <glyph glyph-name="uniE60E" unicode="&#xe60e;" 
d="M949 195l-416 417h-1v1q-8 8 -20 8t-20 -8v-1h-1l-416 -417q-9 -8 -9 -19.5t8.5 -20t20 -8.5t19.5 8l398 398l398 -398q8 -8 19.5 -8t20 8.5t8.5 20t-9 19.5z" />
    <glyph glyph-name="uniE60F" unicode="&#xe60f;" 
d="M949.5 612.5q-8.5 8.5 -20 8.5t-19.5 -8l-398 -398l-398 398q-8 8 -19.5 8t-20 -8.5t-8.5 -20t9 -19.5l416 -417h1v-1q8 -8 20 -8t20 8v1h1l416 417q9 8 9 19.5t-8.5 20z" />
    <glyph glyph-name="uniE610" unicode="&#xe610;" 
d="M954 -30l-284 284q88 99 88 231q0 94 -46.5 173.5t-126 126t-174 46.5t-174 -46.5t-126 -126t-46.5 -174t46.5 -174t126 -126t174.5 -46.5q131 0 229 87l284 -284q6 -5 14.5 -5t14.5 6t6 14.5t-6 13.5zM106 484.5q0 126.5 89.5 216t216 89.5t216 -89.5t89.5 -216
t-89.5 -216t-216 -89.5t-216 89.5t-89.5 216z" />
    <glyph glyph-name="uniE611" unicode="&#xe611;" 
d="M512 832q-185 0 -316.5 -131.5t-131.5 -316.5t131.5 -316.5t316.5 -131.5t316.5 131.5t131.5 316.5t-131.5 316.5t-316.5 131.5zM695 246q9 -9 9 -22.5t-9.5 -23t-22.5 -9.5t-23 10l-137 138l-138 -137q-10 -9 -23 -9t-22.5 9.5t-9.5 22.5t10 23l138 136l-138 138
q-9 9 -9 22.5t9.5 23t22.5 9.5t23 -10l137 -138l138 137q10 9 23 9t22.5 -9.5t9.5 -22.5t-10 -23l-138 -136z" />
    <glyph glyph-name="uniE612" unicode="&#xe612;" 
d="M445 831h-358q-9 0 -15.5 -6.5t-6.5 -15.5v-358q0 -9 6.5 -15.5t15.5 -6.5h358q9 0 15.5 6.5t6.5 15.5v358q0 9 -6.5 15.5t-15.5 6.5zM445 339h-358q-9 0 -15.5 -6.5t-6.5 -15.5v-358q0 -9 6.5 -15.5t15.5 -6.5h358q9 0 15.5 6.5t6.5 15.5v358q0 9 -6.5 15.5t-15.5 6.5z
M937 831h-358q-9 0 -15.5 -6.5t-6.5 -15.5v-358q0 -9 6.5 -15.5t15.5 -6.5h358q9 0 15.5 6.5t6.5 15.5v358q0 9 -6.5 15.5t-15.5 6.5zM914 496q0 -10 -6.5 -16.5t-15.5 -6.5h-268q-10 0 -16.5 6.5t-6.5 16.5v268q0 9 6.5 15.5t16.5 6.5h268q9 0 15.5 -6.5t6.5 -15.5v-268z
M937 339h-358q-9 0 -15.5 -6.5t-6.5 -15.5v-358q0 -9 6.5 -15.5t15.5 -6.5h358q9 0 15.5 6.5t6.5 15.5v358q0 9 -6.5 15.5t-15.5 6.5z" />
    <glyph glyph-name="uniE613" unicode="&#xe613;" 
d="M345 519zM287 519q0 24 17 41t41 17t41 -17t17 -41t-17 -41t-41 -17t-41 17t-17 41zM679 519zM621 519q0 24 17 41t41 17t41.5 -17t17.5 -41t-17.5 -41t-41.5 -17t-41 17t-17 41zM924 558q-34 80 -96 142t-142 96q-83 35 -174 35t-174 -35q-80 -34 -142 -96t-95 -142
q-36 -83 -36 -174t36 -174q33 -80 95 -141.5t142 -95.5q83 -35 174 -35t174 35q80 34 142 95.5t96 141.5q35 83 35 174t-35 174zM512 -32q-113 0 -208.5 56t-151.5 152t-56 208.5t56 208.5t151.5 151.5t208.5 55.5t209 -55.5t151.5 -151.5t55.5 -208.5t-55.5 -208.5
t-151.5 -152t-209 -56zM717.5 268.5q-12.5 9.5 -21.5 -2.5q-97 -127 -197 -121q-64 3 -125 61q-32 30 -50 59q-8 13 -21 5t-5 -21q20 -32 54 -65q69 -66 146 -70h9q110 0 213 133q10 12 -2.5 21.5z" />
    <glyph glyph-name="uniE614" unicode="&#xe614;" 
d="M900 367.5q-6 6.5 -15 6.5t-15 -7l-42 -42q-6 -6 -6 -15t6 -15t15 -6t15 6l42 42q6 7 6 15.5t-6 15zM616 590q6 6 6 15t-6.5 15t-15 6t-14.5 -6q-8 -8 -262 -264q-34 -35 -34 -83t34 -82.5t81.5 -34.5t81.5 35q25 24 89 89q127 126 172 172q61 62 61 150t-61.5 150
t-148.5 62t-149 -62l-104 -104q-94 -94 -156 -157q-90 -90 -90 -217.5t89.5 -217.5t216 -90t215.5 90l141 142q6 6 6 15t-6 15t-15 6t-15 -6l-141 -142q-77 -78 -186 -78t-186 78t-77 187.5t77 187.5l157 157l104 104q49 50 119 50t119 -50t49 -120t-49 -120
q-43 -44 -172 -172q-68 -69 -88 -89q-21 -21 -52.5 -21t-52.5 21t-21 52t21 53q254 256 263 264z" />
    <glyph glyph-name="uniE615" unicode="&#xe615;" 
d="M385 296h-125v126h125v-126zM574 422h-125v-126h125v126zM764 422h-126v-126h126v126zM385 239h-125v-126h125v126zM574 239h-125v-126h125v126zM764 239h-126v-126h126v126zM810 675q0 -16 -11 -27.5t-27 -11.5t-27.5 11.5t-11.5 27.5v97q0 16 11.5 27.5t27.5 11.5
t27 -11.5t11 -27.5v-97zM288 772q0 16 -11.5 27.5t-27.5 11.5t-27 -11.5t-11 -27.5v-97q0 -16 11 -27.5t27 -11.5t27.5 11.5t11.5 27.5v97zM857 716v-40q0 -35 -25 -60t-60.5 -25t-60.5 25t-25 60v40h-351v-40q0 -35 -25 -60t-60.5 -25t-60.5 25t-25 60v40h-93v-764h877v764
h-91zM863 37h-707v473h707v-473z" />
    <glyph glyph-name="uniE616" unicode="&#xe616;" 
d="M715 344q83 83 83 199.5t-82.5 198.5t-199 82t-199 -82t-82.5 -198.5t82 -199.5q73 -72 174 -81v-125h-127q-8 0 -14.5 -6t-6.5 -15t6.5 -15t14.5 -6h127v-127q0 -9 6 -15t15 -6t15 6t6 15v127h127q8 0 14.5 6t6.5 15t-6.5 15t-14.5 6h-127v125q107 6 182 81zM277 543
q0 99 70 169t169 70t169 -70t70 -169t-70 -169t-169 -70t-169 70t-70 169z" />
    <glyph glyph-name="uniE617" unicode="&#xe617;" 
d="M363 232.5q0 -10.5 8 -18.5t19.5 -8t19 8t7.5 18.5t-7.5 18.5t-19 8t-19.5 -8t-8 -18.5zM413 465q42 28 61 54t18 47t-11.5 40.5t-24.5 37.5t-23.5 36t-6.5 39.5t25 42.5q-33 -5 -51.5 -25t-20.5 -43.5t2.5 -43.5t12.5 -28q3 -3 13.5 -10.5t18.5 -14t15.5 -19.5t8 -27.5
t-8 -37t-28.5 -48.5zM534 465q51 35 74.5 66.5t22 57t-14 49.5t-29.5 46.5t-29 44.5t-8 48t30 53q-40 -7 -62.5 -31.5t-25 -53t3 -53t15.5 -34.5q3 -4 16 -13t23 -17.5t19 -24t9.5 -33.5t-10 -45.5t-34.5 -59.5zM931 304q-2 7 -7 16q-1 3 -1 4q-5 8 -10 15q-5 6 -12 13l-2 2
q-7 7 -15 12q-7 4 -16 9l-2 1q-19 9 -39 12h-1q-11 2 -22 3q-3 17 -16.5 31.5t-29.5 14.5h-354v-121h23q18 0 31 -12.5t13 -31.5v-72q0 -18 -13 -31t-31 -13h-73q-18 0 -31 13t-13 31v72q0 19 13 31.5t31 12.5h21v121h-156q-19 0 -33 -17.5t-14 -37.5h-1q0 -6 1 -18v-1v-1
v-1q2 -26 6 -54t16 -74.5t30 -85t51 -77.5t75 -61h280q10 9 21 20.5t18 20t18 23.5t15 20t15.5 22t12.5 18q8 -2 19 -3h4q10 -1 20 -1q8 1 20 2q2 1 5 1q11 2 20 5q62 18 95 66.5t18 100.5zM804 184q-7 -2 -16 -3q-1 0 -2.5 -0.5t-2.5 -0.5q-8 -1 -15 0h-4q-2 0 -8 1
q44 78 48 158q26 -3 44.5 -17t25.5 -35q9 -32 -11.5 -62t-58.5 -41zM93 -11q0 -2 -0.5 -5.5t1.5 -12.5t7 -16t17 -13t30 -6h662q14 0 24.5 5.5t15 13.5t7 15.5t2.5 13.5v5h-766z" />
    <glyph glyph-name="uniE618" unicode="&#xe618;" 
d="M962 592q-11 91 -86 149t-168 50q-74 -7 -156 -66q-21 -15 -29 -20.5t-20.5 -10.5t-16.5 -5t-16 6t-19.5 12t-25.5 22q-55 48 -119.5 55.5t-124.5 -26.5q-66 -38 -97.5 -101.5t-18.5 -132.5q15 -80 66 -143q11 -13 15 -18.5t9.5 -17.5t6.5 -24q4 -59 64 -84q19 -9 30 -27
q20 -32 71.5 -78t70.5 -71q1 -1 3 -2q71 -14 125 -69q13 -12 28.5 -10.5t29.5 14.5q29 28 9 58q-26 41 -71 75q-27 20 -56 1q-2 -1 -7 -4t-6.5 -4t-6 -3.5t-6.5 -2.5h-6q-4 0 -6.5 1.5t-6 4.5t-6.5 7q-21 29 13 60q17 16 49 46t38 37q8 7 12 11t7.5 11t2.5 14t-8 15
q-21 24 -55 -8q-64 -58 -99 -90q-10 -9 -16 -13t-15.5 -3.5t-18.5 10.5q-8 8 -10 14.5t2.5 14t6.5 10.5l12 11q11 10 44 40.5t51 46.5q7 7 11 12t7.5 12t2 14t-7.5 14q-21 24 -56 -7q-67 -61 -98 -90q-32 -31 -56 -5q-6 7 -8 13t3 13.5t7 9.5t11 10q82 79 122 116
q35 31 47.5 32t50.5 -26q89 -63 168 9q34 31 3 58q-63 57 -83 75q-21 17 -2 34q87 76 175 84q48 1 90.5 -26t66.5 -72q36 -65 -14 -146q-16 -25 -64 -76q-30 -32 -64 -17q-28 12 -50 -15q-21 -27 -1 -56q31 -46 76 -75q27 -16 53 4q28 23 15 45q-8 13 -9.5 23.5t3.5 20
t11 16t17 16.5q21 19 43 48q70 92 61 170zM597 216q-25 16 -49.5 2t-23.5 -43q1 -26 41.5 -65t67.5 -40q27 0 40 21t1 45q-26 48 -77 80zM649 307q-27 1 -40 -19.5t0 -45.5q27 -54 85 -83q23 -11 43.5 3t19.5 39q-1 26 -41.5 66t-66.5 40z" />
    <glyph glyph-name="uniE619" unicode="&#xe619;" 
d="M958 357q-51 50 -119 67q-2 1 -4 1h-4q-2 0 -3 -1q-22 -11 -51 -11t-50 11q-2 1 -4 1h-3h-1q-29 -7 -57 -21q-15 -52 -52 -89h343q7 0 7 8v28q0 3 -2 6zM691 548q0 -6 4 -10.5t10 -4.5q2 -31 23.5 -55.5t49 -24.5t48.5 24.5t23 55.5h1q5 0 9.5 4.5t4.5 10.5q0 10 -9 14
q5 14 5 29q0 37 -24 62.5t-58.5 25.5t-58.5 -26t-24 -62q0 -15 4 -29q-8 -4 -8 -14zM356 406q-24 12 -49 18q-2 1 -4 1h-4q-2 0 -3 -1q-22 -11 -51 -11t-50 11q-2 1 -4 1h-3h-1q-70 -17 -123 -68q-2 -3 -2 -6v-28q0 -8 8 -8h338q-38 38 -52 91zM159 548q0 -6 4 -10.5
t10 -4.5q2 -31 23.5 -55.5t49 -24.5t48.5 24.5t23 55.5h1q5 0 9.5 4.5t4.5 10.5q0 10 -9 14q5 14 5 29q0 36 -24.5 62t-58.5 26t-58 -26t-24 -62q0 -15 4 -29q-8 -4 -8 -14zM361 470q0 -11 7.5 -18.5t17.5 -7.5q3 -38 24 -73q8 -13 18 -24q36 -39 81 -39q48 0 85 44l8 10
q27 38 30 82h1q10 0 17 7.5t7 18.5q0 17 -14 24q7 23 7 49q0 62 -41 106.5t-99.5 44.5t-100 -44.5t-41.5 -106.5q0 -25 8 -49q-15 -7 -15 -24zM614 265q-2 2 -6 2h-7q-3 0 -6 -2q-36 -19 -86 -19t-86 19q-3 2 -6 2h-5q-1 0 -3 -1q-119 -28 -209 -116q-4 -4 -4 -10v-47
q0 -6 4 -10t10 -4h599q5 0 9 4t4 10v47q0 6 -4 10q-88 86 -204 115z" />
    <glyph glyph-name="uniE61A" unicode="&#xe61a;" 
d="M952 479q-10 41 -25 77q-52 122 -164.5 198t-250.5 76q-92 0 -175 -35.5t-143.5 -95.5t-96 -143.5t-35.5 -174.5t35.5 -174t96 -143.5t143.5 -96t175 -35.5t175 35.5t143.5 96t96 143.5t35.5 174q0 50 -10 98zM145 381q0 67 24 130q5 -3 19 -8.5t20.5 -11t6.5 -15.5
q0 -22 0.5 -36.5t2.5 -34t6.5 -32t12.5 -24.5t20.5 -18t29.5 -6q2 0 11 -4.5t23 -18.5t22 -33q3 -7 10.5 -7t22 3.5t23.5 3.5q6 0 6 -6t-3 -24t-3 -36q0 -40 95 -108l8 -6q-1 -43 3 -73q-98 1 -181 50.5t-131 133t-48 181.5zM601 26q9 39 13.5 53t14 32.5t24.5 30.5
q20 19 19 35.5t-15.5 27t-31.5 8.5q-9 -1 -13 3.5t-4.5 10.5t-4.5 12t-11 6q-13 1 -42.5 27.5t-45.5 33.5q-1 1 -24 15.5t-39 15.5q-6 0 -15 -2t-16.5 -4t-14 -3.5t-10.5 0t-4 5.5q0 23 -1.5 43.5t-3.5 38.5t-2 19q0 3 -1 5q0 2 2 1q9 -2 24 -3q9 0 14 17.5t13 18.5
q7 0 35.5 -6.5t34.5 -2.5q2 1 9 -9q3 -4 11 -18q28 -49 39 -49q13 -2 13 49q0 5 -1.5 17.5t-1.5 22.5t3 16q9 15 19.5 33t17.5 29.5t13.5 22.5t9 17.5t2 8.5t-10 3t-23.5 0t-26 -5q-4 -1 -3.5 -9t-6.5 -9q-44 -10 -69 10q-13 11 -4 23q5 8 23 12.5t33 12.5t17 27q3 31 6 74
q98 -15 175 -76t112 -152q-146 -106 -51 -190q26 -23 55 -68q-31 -86 -99 -147.5t-157 -83.5z" />
    <glyph glyph-name="uniE61B" unicode="&#xe61b;" 
d="M599 548q0 -60 -38 -107q37 -19 78 -20q72 0 123 50.5t51 122.5q0 71 -49.5 121.5t-120.5 51.5q-41 0 -77 -17t-61 -48q43 -22 68.5 -63t25.5 -91zM572 385q11 -28 10 -82q0 -15 11 -24q51 -39 46 -108q-1 -19 9 -37q19 -33 -9 -55q-26 -20 -48 -3q-35 28 -17 56
q14 23 6 65q-4 22 -18 34.5t-37 12.5q-17 0 -30 -7q-9 14 -25 14q-13 0 -21.5 -9t-8.5 -21t8 -20.5t19 -9.5q-5 -37 9 -58q18 -27 -4 -49q-8 -7 -19 -10.5t-24.5 2t-21.5 21.5q-7 14 1.5 35t3.5 40q-5 20 0 41q16 63 79 85q4 2 12.5 1.5t13.5 2t7 10.5q2 15 -3 43
q-3 21 -21 9q-119 -76 -239 0q-1 0 -1 1q-14 9 -18 -4q-5 -16 -5.5 -34.5t0.5 -41t0 -35.5q0 -8 3.5 -13t11.5 -10.5t10 -6.5q27 -25 28.5 -60t-22.5 -63q-24 -27 -57 -27.5t-60 24.5q-27 24 -26 65t29 62q10 8 16 15t8.5 17t3 15t-0.5 19t-2 19q-1 51 10 79
q-51 -15 -82 -70q-18 -32 -35 -117.5t-8 -110.5q10 -29 45.5 -55.5t75.5 -27.5q196 -2 391 0q41 1 77.5 25.5t45.5 58.5q9 30 -2.5 99t-21.5 95q-15 40 -39 65.5t-64 37.5zM379 360q72 0 123 50.5t51 122.5q0 71 -49.5 121.5t-119.5 51.5q-73 0 -124 -49.5t-52 -121.5
t49.5 -123t121.5 -52zM210.5 130q12.5 0 21 8.5t8.5 21t-8.5 21.5t-21 9t-21.5 -9t-9 -21.5t9 -21t21.5 -8.5zM783 373q3 16 -2 43q-4 21 -22 9q-38 -25 -113 -36q24 -21 44 -51q5 4 16.5 8t25.5 8t19 6q3 1 11.5 0.5t14 2t6.5 10.5zM935 344q-16 39 -39.5 64.5t-64.5 37.5
q11 -27 10 -82q0 -15 12 -24q50 -39 46 -108q-1 -19 9 -37q19 -33 -9 -54q-27 -21 -48 -4q-36 28 -18 56q14 23 7 66q-4 21 -18.5 33.5t-36.5 12.5q-17 1 -38 -4.5t-27 -13.5q9 -18 15.5 -44.5t9.5 -47t8 -63t9 -67.5q5 0 37 0.5t37 0.5q40 0 76.5 24.5t46.5 58.5
q9 30 -2.5 99t-21.5 96z" />
    <glyph glyph-name="uniE61C" unicode="&#xe61c;" 
d="M791 832q9 0 15 -7q4 -7 3 -14.5t-7 -12.5l-540 -414l540 -416q6 -5 7 -13t-3.5 -14t-12.5 -7t-14 4l-559 431q-8 6 -8 15t8 15l559 429q5 4 12 4zM791 832z" />
    <glyph glyph-name="uniE61D" unicode="&#xe61d;" 
d="M957 801l1 10q0 9 -5 14q-6 6 -14 6h-11v0h-256q-9 0 -15 -6t-6 -14v-15q1 -9 7.5 -15t15.5 -6h188l-224 -222q-97 81 -224 81q-95 0 -175.5 -46.5t-127 -127t-46.5 -175.5t46.5 -175.5t127 -127t175.5 -46.5t175.5 46.5t127 127t46.5 175.5q0 130 -85 229l224 222v-191
q-1 -8 5 -14.5t15 -6.5h14q9 0 15 5t6 13v258v1zM708 285q0 -122 -86 -208t-208 -86t-208 86t-86 208t86 208t208 86t208 -86t86 -208z" />
    <glyph glyph-name="uniE61E" unicode="&#xe61e;" 
d="M272 128l1 -15h484v15q0 106 -62.5 164.5t-177.5 58.5q-121 0 -183 -58t-62 -165zM390 531q0 -54 36 -94t87 -40t88.5 40.5t37.5 93.5q0 54 -36.5 91.5t-88 37.5t-88 -37.5t-36.5 -91.5zM82 176v-11h166q18 110 98 166q-38 19 -87 19q-86 0 -131.5 -48.5t-45.5 -125.5z
M170 477q0 -39 25 -66.5t61 -27.5q37 0 63.5 28t26.5 65.5t-25.5 64.5t-62.5 27t-62.5 -27t-25.5 -64zM939 175v-11h-163q-18 109 -96 166q37 19 85 19q85 0 129.5 -48.5t44.5 -125.5zM853 475q0 -38 -24.5 -66t-60.5 -28t-62 28t-26 66t25 64.5t61.5 26.5t61.5 -26.5
t25 -64.5z" />
    <glyph glyph-name="uniE61F" unicode="&#xe61f;" 
d="M535 -41h152q21 -1 34 4t18.5 16t7 19.5t1.5 21.5v182q-194 -230 -213 -243zM355 -29q-5 -15 -0.5 -18t19.5 3q20 6 54 28.5t58 40.5t24 19l-85 74q-59 -107 -70 -147zM946 530l-58 48q-21 17 -34 2l-323 -343l-75 -87l97 -85l35 41q8 9 21 24t16 19l2 2l3 3l318 344
q15 17 -2 32zM710 497l46 53l-6 197v11v12q0 2 -1.5 11t-4.5 12l-7 9q-5 6 -12.5 8t-18 3.5t-24.5 1.5h-547q-17 1 -29.5 -1t-19.5 -7t-11.5 -9t-6.5 -12t-2 -12.5t0.5 -14.5t0.5 -12v-312v-99v-309v-4q0 -14 1 -22t6.5 -18.5t21 -16.5t39.5 -7h171l87 195zM185 730h453
q13 0 22.5 -9.5t9.5 -22.5t-9.5 -22t-22.5 -9h-453q-13 0 -22.5 9t-9.5 22.5t9.5 22.5t22.5 9zM185 582h453q13 0 22.5 -9t9.5 -22t-9.5 -22.5t-22.5 -9.5h-453q-13 0 -22.5 9.5t-9.5 22.5t9.5 22t22.5 9zM185 371q-13 0 -22.5 9.5t-9.5 22.5t9.5 22.5t22.5 9.5h280
q14 0 23.5 -9.5t9.5 -22.5t-9.5 -22.5t-23.5 -9.5h-280z" />
    <glyph glyph-name="uniE620" unicode="&#xe620;" 
d="M686 454q-4 -1 -5.5 -6t-1.5 -11.5t-1 -9.5q-3 -11 -9 -21.5t-12 -16.5q-9 -7 -12.5 -14.5t-5.5 -15.5q-3 -9 -5 -17q-3 -9 -10 -17q-22 -29 -33 -55.5t-15 -51.5t-2 -49t7 -47q4 -17 11.5 -35.5t22.5 -38.5t38 -38.5t57 -35.5q-23 -5 -53 -8q-27 -3 -64 -6
q-38 -2 -86 -2q-25 0 -58 2q-35 2 -67 5q-36 3 -69 6q-34 4 -62 8q-28 5 -47.5 9.5t-24.5 8.5q-8 8 -13 42.5t3 90.5q4 32 24.5 48.5t48.5 26.5q27 9 58 17q30 8 53 23q18 11 27.5 21t13 20.5t3.5 22.5q0 11 -1 24q-2 20 -13 32q-13 12 -26 23q-7 5 -13 17q-6 11 -10 22
q-4 12 -7 27q-7 2 -13 6q-4 4 -10 11.5t-11 22.5q-4 15 -2.5 27.5t4.5 20.5q4 11 11 18q0 33 4 65q3 28 11.5 59.5t26.5 55.5q17 24 36.5 39.5t40.5 24t42 11.5t40 3q25 0 48 -5q23 -6 42 -16q20 -9 35 -21t25 -24q21 -28 31 -61.5t15 -62.5q5 -35 4 -69q6 -5 10 -11
q3 -6 5 -15.5t0 -23.5q-2 -18 -7.5 -28.5t-12.5 -16.5q-7 -7 -16 -10zM320 464q-7 6 -12.5 16.5t-7.5 28.5q-2 14 0 23.5t5 15.5q4 6 10 11q-1 34 4 69q4 29 14.5 62.5t31.5 61.5q10 12 25 24t35 21q19 10 42 15.5t48 5.5q19 0 40 -3t42 -11.5t40.5 -24t36.5 -39.5
q18 -24 26.5 -55.5t11.5 -59.5q4 -32 4 -65q7 -7 11 -18q3 -8 4.5 -20.5t-2.5 -27.5q-5 -15 -11 -22.5t-10 -11.5q-6 -4 -13 -6q-3 -15 -7 -27q-4 -11 -10 -22t-13 -17q-13 -11 -26 -23q-11 -12 -13 -32q-1 -13 -1 -24q0 -12 3.5 -22.5t13 -20.5t27.5 -21q23 -15 53 -23
q31 -8 58 -17q28 -10 48.5 -26.5t24.5 -48.5q8 -56 3 -90.5t-13 -42.5q-5 -4 -24.5 -8.5t-47.5 -9.5q-28 -4 -62 -8q-33 -3 -69 -6q-32 -3 -67 -5q-33 -2 -58 -2q-48 0 -86 2q-37 3 -64 6q-30 3 -53 8q34 17 57 35.5t38 38.5t22.5 38.5t11.5 35.5q5 23 7 47t-2 49t-15 51.5
t-33 55.5q-7 8 -10 17q-2 8 -5 17q-2 8 -5.5 15.5t-12.5 14.5q-6 6 -12 16.5t-9 21.5q-1 3 -1 9.5t-1.5 11.5t-5.5 6q-9 3 -16 10z" />
    <glyph glyph-name="uniE621" unicode="&#xe621;" 
d="M818 414h-61v182v30q0 88 -72 150t-173 62t-173 -62t-72 -150v-212h123v212q0 37 35.5 64t86.5 27t86.5 -27t35.5 -64v-212h-382q-107 -5 -107 -61v-332q0 -38 27 -64.5t65 -26.5h550q38 0 65 26.5t27 64.5v332q0 38 -11.5 49.5t-49.5 11.5zM573 128v-47q0 -25 -18 -42.5
t-43 -17.5t-43 17.5t-18 42.5v47q-28 16 -44.5 43.5t-16.5 60.5q0 51 35.5 86t86.5 35t86.5 -35t35.5 -86q0 -33 -16.5 -60.5t-44.5 -43.5z" />
    <glyph glyph-name="uniE622" unicode="&#xe622;" 
d="M512 826q-90 0 -171.5 -35t-141 -94.5t-94.5 -141t-35 -171.5t35 -171.5t94.5 -141t141 -94.5t171.5 -35t171.5 35t141 94.5t94.5 141t35 171.5t-35 171.5t-94.5 141t-141 94.5t-171.5 35zM797 99q-56 -56 -128 -87q-75 -31 -157 -31t-157 31q-72 31 -128 87t-87 128
q-31 75 -31 157t31 157q31 72 87 128t128 87q75 31 157 31t157 -31q72 -31 128 -87t87 -128q31 -75 31 -157t-31 -157q-31 -72 -87 -128zM782 403h-251v249q0 8 -5.5 14t-13.5 6t-13.5 -6t-5.5 -14v-249h-248q-8 0 -13.5 -5.5t-5.5 -13.5t5.5 -13.5t13.5 -5.5h248v-249
q0 -8 5.5 -14t13.5 -6t13.5 6t5.5 14v249h251q8 0 13.5 5.5t5.5 13.5t-5.5 13.5t-13.5 5.5z" />
    <glyph glyph-name="uniE623" unicode="&#xe623;" 
d="M512 825q-90 0 -171.5 -35t-140.5 -94t-94 -140.5t-35 -171.5t35 -172t94 -141t140.5 -94t171.5 -35t172 35t141 94t94 141t35 172t-35 171.5t-94 140.5t-141 94t-172 35zM797.5 98.5q-55.5 -55.5 -128.5 -86.5q-75 -32 -157 -32t-157 32q-72 31 -128 86.5t-86 128.5
q-32 75 -32 157t32 157q30 72 86 128t128 86q75 32 157 32t157 -32q73 -30 128.5 -86t86.5 -128q32 -75 32 -157t-32 -157q-31 -73 -86.5 -128.5zM782 403h-537q-8 0 -13.5 -5.5t-5.5 -13.5t5.5 -14t13.5 -6h537q8 0 13.5 6t5.5 14t-5.5 13.5t-13.5 5.5z" />
    <glyph glyph-name="uniE624" unicode="&#xe624;" 
d="M814 677q-9 9 -23 9t-24 -9.5t-10 -23.5t10 -24q69 -69 93.5 -162t0 -186t-93.5 -162t-162 -93.5t-186 0t-162 93.5q-52 52 -79 119.5t-27 136t27 135.5t79 119q10 10 10 24t-10 23.5t-24 9.5t-23 -9q-61 -61 -93.5 -139t-32.5 -163.5t32.5 -164t93.5 -138.5
q61 -62 139.5 -93.5t162.5 -31.5t162.5 31.5t139.5 93.5q61 60 93.5 138.5t32.5 164t-32.5 163.5t-93.5 139zM512 223q14 0 24 10t10 24v528q0 14 -10 23.5t-24 9.5t-24 -9.5t-10 -23.5v-528q0 -14 10 -24t24 -10zM512 223z" />
    <glyph glyph-name="uniE625" unicode="&#xe625;" 
d="M512 823q-125 0 -225.5 -57t-157.5 -157.5t-57 -225.5t57 -225.5t157.5 -157.5t225.5 -57t225.5 57t157.5 157.5t57 225.5t-57 225.5t-157.5 157.5t-225.5 57zM812 83q-54 -53 -137 -88q-72 -30 -163 -30t-163 30q-71 30 -133 92t-92 133q-30 72 -30 163q0 92 30 164
q34 82 88 136q54 53 137 88q72 31 163 31q95 0 167 -31q77 -33 133 -88q54 -55 86 -130q32 -77 32 -170q0 -97 -29 -166q-31 -76 -89 -134zM798 396h-569q-9 0 -11.5 -2.5t-2.5 -10.5t2.5 -10.5t11.5 -2.5h569q9 0 11.5 2.5t2.5 10.5t-2.5 10.5t-11.5 2.5zM501 669v-569
q0 -9 2 -11.5t10.5 -2.5t10.5 2.5t2 11.5v569q0 8 -2 11t-10.5 3t-10.5 -3t-2 -11z" />
    <glyph glyph-name="uniE626" unicode="&#xe626;" 
d="M512 823q-125 0 -225.5 -57t-157.5 -157.5t-57 -225.5t57 -225.5t157.5 -157.5t225.5 -57t225.5 57t157.5 157.5t57 225.5t-57 225.5t-157.5 157.5t-225.5 57zM812 83q-54 -53 -137 -88q-72 -30 -163 -30t-163 30q-71 30 -133 92t-92 133q-30 72 -30 163q0 92 30 164
q34 82 88 136q54 53 137 88q72 31 163 31q95 0 167 -31q77 -33 133 -88q54 -55 86 -130q32 -77 32 -170q0 -97 -29 -166q-31 -76 -89 -134zM798 396h-569q-9 0 -11.5 -2.5t-2.5 -10.5t2.5 -10.5t11.5 -2.5h569q9 0 11.5 2.5t2.5 10.5t-2.5 10.5t-11.5 2.5z" />
    <glyph glyph-name="uniE627" unicode="&#xe627;" 
d="M677 755q-11 22 -35 22q-14 0 -25 -9l-324 -147q-189 1 -191 1q-16 0 -27 -11.5t-11 -27.5v-390q0 -15 10 -26t25 -13h9h20h25h21h8q16 0 27.5 11.5t11.5 27.5t-11.5 27.5t-27.5 11.5h-40l-1 311h158q8 0 16 4q3 1 288 131v-581l-244 116q-13 9 -29 6.5t-25.5 -15.5
t-7 -29t15.5 -25l306 -145q13 -9 29 -6.5t26 15.5q4 5 6 12q1 3 1 6v700q1 12 -4 23zM873 589q-6 7 -14 11q-8 5 -18 5q-16 0 -27.5 -11.5t-11.5 -27.5v-3q0 -15 10 -26q3 -4 7 -6q61 -58 61 -142q0 -82 -58 -139q-8 -4 -13 -12q-2 -2 -3.5 -8.5t-2.5 -11.5l-1 -5
q0 -16 11.5 -27.5t27.5 -11.5q11 0 21 6q6 3 10 8q41 39 64 91t23 110t-23 110t-63 90z" />
    <glyph glyph-name="uniE628" unicode="&#xe628;" 
d="M415 481h192v-192h-192v192z" />
    <glyph glyph-name="uniE629" unicode="&#xe629;" 
d="M445 321q-179 178 -130 227q3 3 10 9l21 23q7 7 17 20.5t12 23.5t3 26t-5.5 31.5t-19.5 37t-33 46.5q-18 23 -36 36.5t-32.5 20t-31.5 4t-27.5 -5.5t-27 -16t-23.5 -19.5t-23.5 -24t-20.5 -21.5q-20 -19 -24 -57t10 -91.5t43.5 -114.5t81.5 -132.5t119.5 -139t139 -119.5
t132.5 -81.5t114.5 -43t91 -9.5t57.5 23q4 4 21 20.5t24 23.5t20 23.5t16 27t5.5 27.5t-4 31.5t-20 32.5t-36.5 37q-25 20 -46.5 32.5t-37.5 19t-31.5 5.5t-25.5 -3t-24 -12t-21 -17t-22 -21q-6 -7 -9 -10q-49 -48 -227 130v0z" />
    <glyph glyph-name="uniE62A" unicode="&#xe62a;" 
d="M512 -10q31 23 79.5 60t146.5 116.5t134 119.5q90 98 90 246q0 102 -66 174t-159 72t-159 -72t-66 -174q0 102 -66 174t-159 72t-159 -72t-66 -174q0 -148 90 -246q80 -88 358 -294z" />
    <glyph glyph-name="uniE62B" unicode="&#xe62b;" 
d="M512 836q93 0 175 -35.5t142.5 -96t96 -142.5t35.5 -175q0 -94 -35.5 -176t-96 -143t-142.5 -96.5t-175 -35.5t-175 35.5t-143 96.5t-96 143t-35 176q0 93 35 175t96 142.5t143 96t175 35.5zM635 262q2 4 -3.5 10t-13 13t-13.5 14.5t-4 14.5q5 15 3.5 22.5t-9 9.5
t-22 1.5t-34.5 -0.5q-11 0 -17.5 -0.5t-12.5 -1t-12.5 -1t-15.5 0.5q-13 1 -20.5 4.5t-13.5 7.5t-15.5 7t-27.5 4q-26 1 -37 2t-16 2.5t-8 2t-11 0.5q-9 -1 -26.5 -8.5t-36 -17.5t-32 -20.5t-13.5 -17.5q0 -19 2.5 -30.5t7 -18t9 -10t9.5 -8.5t13 -7t17.5 -2.5t18 -2
t13.5 -6.5q9 -12 19.5 -10t19 6.5t13.5 3.5t6 -18q0 -8 3 -12t8 -6l11 -5q7 -4 14 -11q8 -8 5.5 -14.5t-7 -12.5t-9 -13.5t0.5 -14.5q7 -10 14.5 -15t14.5 -8t13 -7.5t8 -14.5q0 -2 6 -10l14 -18q6 -8 9.5 -13.5t-2.5 -5.5q12 -1 25 -1t17 4l2 2v1l2 1q2 1 5.5 2.5t9.5 6.5
q11 7 21.5 19.5t18.5 27.5t13 30.5t7 28.5t6.5 18.5t7.5 10t5.5 11.5t-0.5 24q-3 22 5.5 32.5t14.5 16.5zM729 112q14 16 14.5 26.5t-22.5 16.5q-24 6 -34 6.5t-19 -10t-12.5 -22t2.5 -30.5q2 -8 4 -13.5t5 -7t8.5 -1t16.5 3.5q12 3 22.5 13.5t14.5 17.5zM755 392
q7 6 23 9.5t32 9t28.5 15t13.5 26.5t0 31.5t-6 29t-13 30t-20 35.5q-14 21 -25 35.5t-21.5 24.5t-22 18.5t-25.5 16.5q-15 9 -30 19t-32.5 13.5t-37.5 -4.5t-46 -34l-16 -17q-11 -9 -22.5 -18t-22 -15t-18.5 -6t-24.5 -2t-33 -9.5t-28.5 -21.5t-10 -37q1 -26 9 -33.5
t21 -8.5t30.5 -2t38.5 -13q24 -5 45 -11q18 -5 36.5 -12t31.5 -15q14 -8 11 -22t-10 -28.5t-12 -28t6 -20.5q14 -11 21 -14t14.5 -1.5t21 4.5t41.5 3q-8 0 -3.5 5.5t15 14.5t22 18t18.5 15z" />
    <glyph glyph-name="uniE62C" unicode="&#xe62c;" 
d="M935 62l-214 213l-7 7q57 87 57 192q0 96 -47.5 177t-128.5 128.5t-177 47.5t-177.5 -47.5t-128.5 -128.5t-47 -177t47 -177.5t128.5 -128.5t177.5 -47q104 0 192 57q5 -6 6 -8l214 -213q21 -22 52 -22t52.5 22t21.5 52.5t-21 52.5zM418 232q-100 0 -171 71t-71 171
t71 170.5t171 70.5t170.5 -70.5t70.5 -170.5t-70.5 -171t-170.5 -71z" />
    <glyph glyph-name="uniE62D" unicode="&#xe62d;" 
d="M498 301l-407 175q-8 -42 -8 -84q0 -92 34.5 -175.5t93 -143.5t139.5 -95.5t169.5 -35.5t169.5 35.5t139.5 95.5t93 143.5t34.5 175.5q0 33 -5 67zM546 443l393 142q-5 7 -12.5 20t-35.5 47.5t-60 63t-85 58t-110 43t-136 7t-163 -40.5zM68 619q2 4 5.5 12t16.5 29
t28.5 38.5t42 35t55.5 24.5l179 -282z" />
    <glyph glyph-name="uniE62E" unicode="&#xe62e;" horiz-adv-x="1166" 
d="M340 571q0 19 -13.5 33t-32.5 14h-94q-20 0 -33.5 -14t-13.5 -33v-631q0 -19 13.5 -33t33.5 -14h94q19 0 32.5 14t13.5 33v631zM681 839q0 20 -14 33.5t-33 13.5h-94q-19 0 -33 -13.5t-14 -33.5v-899q0 -19 14 -33t33 -14h94q19 0 33 14t14 33v899zM1021 665q0 19 -14 33
t-33 14h-94q-19 0 -33 -14t-14 -33v-725q0 -19 14 -33t33 -14h94q19 0 33 14t14 33v725z" />
    <glyph glyph-name="uniE62F" unicode="&#xe62f;" 
d="M512 816q-117 0 -217 -57.5t-157.5 -157t-57.5 -217t57.5 -217t157.5 -157.5t217 -58t217 58t157.5 157.5t57.5 217t-57.5 217t-157.5 157t-217 57.5zM753 389v-13q-2 -22 -17.5 -37t-37.5 -15h-126v-181h-68q-22 2 -37 18t-15 37v126h-181v69q2 21 17.5 36t37.5 15h126
v181h68q22 -1 37 -17t15 -38v-126h181v-55zM753 389z" />
    <glyph glyph-name="uniE630" unicode="&#xe630;" horiz-adv-x="1000" 
d="M431 808q48 17 130 9q57 -4 97.5 -51t39.5 -104v-531q2 -58 -38.5 -105t-98.5 -53q-104 -13 -162 27q-31 23 -49 58t-16 73q-1 177 -1 531q-1 47 26.5 88t71.5 58zM364 340q0 -22 -1.5 -73t-0.5 -88.5t6 -71.5q11 -38 41.5 -63t68 -31t75.5 0t68.5 31t41.5 63
q5 33 5.5 72.5t-0.5 85.5t-1 73q-155 -34 -303 2z" />
    <glyph glyph-name="uniE631" unicode="&#xe631;" 
d="M512 722q-118 0 -218 -58t-158 -158t-58 -218t58 -218.5t158 -158.5t218 -58t218.5 58t158.5 158.5t58 218.5t-58 218t-158.5 158t-218.5 58zM730 240h-231q-7 0 -14 2q-22 10 -22 33v231q0 15 10.5 25.5t25.5 10.5t25.5 -10.5t10.5 -25.5v-195h195q14 0 24.5 -10.5
t10.5 -25t-10.5 -25t-24.5 -10.5z" />
    <glyph glyph-name="uniE632" unicode="&#xe632;" 
d="M510 298v309q0 16 -15 27.5t-36 11.5t-36.5 -11.5t-15.5 -27.5v-309q-34 -15 -55 -46.5t-21 -70.5q0 -52 37.5 -89.5t90.5 -37.5t90 37.5t37 89.5q0 39 -21 70.5t-55 46.5zM630 363v337q0 60 -53 100q-50 38 -118 38t-118 -38q-53 -40 -53 -100v-337q-79 -74 -79 -182
q0 -103 73 -176t176.5 -73t177 73t73.5 176q0 108 -79 182zM459 -1q-76 0 -129.5 53.5t-53.5 128.5q0 86 67 141l12 10v368q0 28 31 49t73 21t73 -21t31 -49v-368l12 -10q67 -55 67 -141q0 -75 -54 -128.5t-129 -53.5zM663 664h41q6 0 11 5t5 11.5t-5 11.5t-11 5h-41
q-7 0 -11.5 -5t-4.5 -11.5t4.5 -11.5t11.5 -5zM704 646h-41q-7 0 -11.5 -4.5t-4.5 -11.5t4.5 -12t11.5 -5h41q6 0 11 5t5 12t-5 11.5t-11 4.5zM704 595h-41q-7 0 -11.5 -4.5t-4.5 -11.5t4.5 -12t11.5 -5h41q6 0 11 5t5 12t-5 11.5t-11 4.5zM704 545h-41q-7 0 -11.5 -5
t-4.5 -12t4.5 -11.5t11.5 -4.5h41q6 0 11 4.5t5 11.5t-5 12t-11 5zM704 494h-41q-7 0 -11.5 -5t-4.5 -12t4.5 -11.5t11.5 -4.5h41q6 0 11 4.5t5 11.5t-5 12t-11 5zM704 443h-41q-7 0 -11.5 -5t-4.5 -11.5t4.5 -11.5t11.5 -5h41q6 0 11 5t5 11.5t-5 11.5t-11 5z" />
    <glyph glyph-name="uniE633" unicode="&#xe633;" 
d="M944 606.5q11 -13.5 11.5 -28.5t-8.5 -23l-417 -325q-2 -1 -7.5 -5t-6.5 -5q-12 -13 -26.5 -16t-23.5 5l-393 354q-9 8 -7 23t13.5 28t26 16.5t23.5 -5.5l358 -322l408 318q10 8 24 3.5t25 -18z" />
    <glyph glyph-name="uniE634" unicode="&#xe634;" 
d="M512 657q113 0 193 -80t80 -193t-80 -193t-193 -80t-193 80t-80 193t80 193t193 80zM512 820q-89 0 -169.5 -34.5t-139 -93t-93 -139t-34.5 -169.5t34.5 -169.5t93 -139t139 -93t169.5 -34.5t169.5 34.5t139 93t93 139t34.5 169.5t-34.5 169.5t-93 139t-139 93
t-169.5 34.5z" />
    <glyph glyph-name="uniE635" unicode="&#xe635;" 
d="M511.5 828q-90.5 0 -172.5 -35t-141 -94.5t-94.5 -141.5t-35.5 -172.5t35.5 -172.5t94.5 -141t141 -94.5t172.5 -35.5t172.5 35.5t141.5 94.5t94.5 141t35 172.5t-35 172.5t-94.5 141.5t-141.5 94.5t-172.5 35zM759 189q11 -11 11 -26t-11 -26t-26 -11t-26 11l-195 195
l-196 -195q-11 -11 -26 -11t-26 11t-11 26t11 26l195 196l-195 195q-11 11 -11 26t11 26t26 11t26 -11l196 -195l195 195q11 11 26.5 11t26 -11t10.5 -26t-11 -26l-195 -195z" />
    <glyph glyph-name="uniE636" unicode="&#xe636;" 
d="M468 252q-13 0 -21 9q-7 9 -5.5 20t9.5 18l100 82l-101 89q-8 7 -8.5 18t6.5 19.5t18 9t19 -6.5l111 -98q14 -13 14 -32t-15 -32l-110 -90q-8 -6 -17 -6zM512 -66q-186 0 -318 132t-132 318t132 318t318 132t318 -132t132 -318t-132 -318t-318 -132zM512 781
q-108 0 -199.5 -53t-144.5 -144.5t-53 -199.5t53 -199.5t144.5 -144.5t199.5 -53t199.5 53t144.5 144.5t53 199.5t-53 199.5t-144.5 144.5t-199.5 53z" />
    <glyph glyph-name="uniE637" unicode="&#xe637;" 
d="M675 413h-127v127q0 15 -10.5 25.5t-25.5 10.5t-26 -10.5t-11 -25.5v-127h-127q-15 0 -25.5 -11t-10.5 -26t10.5 -25.5t25.5 -10.5h127v-127q0 -15 11 -26t26 -11t25.5 11t10.5 26v127h127q15 0 25.5 10.5t10.5 25.5t-10.5 26t-25.5 11zM511 831q-92 0 -176 -36t-145 -97
t-97 -145t-36 -176.5t36 -176.5t97 -144.5t145 -96.5t176.5 -36t176.5 36t144.5 96.5t96.5 144.5t36 176.5t-36 176.5t-96.5 145t-144.5 97t-177 36zM511 -21q-107 0 -198.5 53.5t-145 145t-53.5 199t53.5 199t145 145t199 53.5t199 -53.5t145 -145t53.5 -199t-53.5 -199
t-145 -145t-199.5 -53.5zM511 -21z" />
    <glyph glyph-name="uniE638" unicode="&#xe638;" 
d="M866 809h-212v-71h166l-212 -212q-88 71 -202 71q-133 0 -226 -93t-93 -226t93 -226t226 -93t226 93t93 226q0 111 -67 195l209 209v-156h70v283h-71zM405.5 30q-103.5 0 -176 72t-72.5 175.5t72.5 176t176 72.5t176 -72.5t72.5 -176t-72.5 -175.5t-176 -72z" />
    <glyph glyph-name="uniE639" unicode="&#xe639;" 
d="M862 247q64 64 86.5 148.5t0 169.5t-86 148.5t-148.5 86t-170 -0.5t-148 -86q-90 -90 -96.5 -216t71.5 -223l-106 -105l-103 103l-53 -53l104 -103l-104 -104l52 -53l104 104l103 -103l53 53l-103 103l105 106q97 -79 223 -72t216 97zM446 297q-76 76 -75 181t76 180
t180.5 75.5t180 -74.5t74.5 -181t-75 -181t-180 -75.5t-181 75.5z" />
    <glyph glyph-name="uniE63A" unicode="&#xe63a;" 
d="M513 -155q90 1 172 36t141 94.5t93.5 141.5t34.5 172.5t-35.5 172t-95 140.5t-141.5 94t-172 34.5t-172 -35.5t-141 -94.5t-94 -141.5t-34.5 -172.5t36 -172t95 -140.5t141.5 -94t172 -35zM454 500q0 13 9.5 22t22.5 9h49q13 0 22.5 -9t9.5 -22l1 -218q0 -13 -9.5 -22.5
t-22.5 -9.5h-49q-13 0 -22.5 9t-9.5 22zM456 126q0 12 9 21.5t22 9.5h50q13 0 22 -9t9 -22v-50q0 -13 -9 -22t-22 -9h-50q-13 0 -22 9t-9 22v50zM456 126z" />
    <glyph glyph-name="uniE63B" unicode="&#xe63b;" 
d="M576 159v354q0 19 16.5 27t32.5 0t16 -27v-354q0 -19 -16 -27t-32.5 0t-16.5 27zM383 159v354q0 19 16 27t32.5 0t16.5 -27v-354q0 -19 -16.5 -27t-32.5 0t-16 27zM931 673h-161v65q0 39 -28.5 67.5t-67.5 28.5h-323q-40 0 -68.5 -28t-28.5 -68v-65h-160q-20 0 -28 -16
t0 -32t28 -16h837q19 0 27 16t0 32t-27 16zM319 738q0 12 9.5 22t22.5 10h323q13 0 22 -9t9 -23v-65h-386v65zM737 -66h-450q-40 0 -68.5 28t-28.5 68v483q0 14 9.5 23t22.5 9t22.5 -9t9.5 -23v-483q0 -12 10 -22t23 -10h450q13 0 23 10t10 22v482q0 19 16 27.5t32 0
t16 -27.5v-482q0 -40 -28.5 -68t-68.5 -28z" />
    <glyph glyph-name="uniE63C" unicode="&#xe63c;" horiz-adv-x="1185" 
d="M589 465q-37 0 -63 -26.5t-26 -63.5l178 -1v1q0 37 -26 63.5t-63 26.5zM589 384q-13 0 -22.5 9.5t-9.5 23t9.5 23t23 9.5t23 -9.5t9.5 -23t-9.5 -23t-23.5 -9.5zM458 602l88 -159l17 10l-87 159q-6 3 -12 0q-3 -1 -4.5 -3.5t-1.5 -4.5v-2zM517 527q1 -4 -2 -7l-7 2
l-43 78q-3 5 2 7l7 -2zM419 595l-9 -7l-34 42l9 8zM380 553l-7 -10l-45 30l6 10zM354 508l-4 -11l-52 16l3 11zM945 834h-726q-65 0 -111 -46t-46 -111l39 -586q0 -65 46 -111t112 -46h647q65 0 111 46t46 111l40 586q0 65 -46 111t-112 46zM570 69l-46 67l-22 -21v-46h-17
v132h17v-65l65 65h24l-55 -53l57 -79h-23zM725 88q-13 -11 -26.5 -16t-27.5 -5q-20 0 -35.5 8.5t-24 24t-8.5 35t8 36t23.5 24.5t34.5 8q14 0 25.5 -4.5t18.5 -13t10 -21.5l-16 -4q-3 10 -7 15.5t-12.5 9t-18.5 3.5q-12 0 -20.5 -3.5t-14 -9.5t-8.5 -13q-5 -12 -5 -26
q0 -18 6 -30t18 -17.5t25 -5.5q11 0 21.5 4.5t16.5 8.5v25h-39v15h56v-48zM916 350l-664 3v31q0 91 44.5 173.5t121.5 133.5t166 51q91 0 167.5 -44.5t121 -121t44.5 -166.5zM916 350z" />
    <glyph glyph-name="uniE63D" unicode="&#xe63d;" 
d="M411 -32q0 13 8 21l384 390l-384 393q-8 9 -8 21t9 21t21 8.5t21 -9.5l404 -413q8 -9 8 -21t-8 -21l-404 -410q-9 -9 -21.5 -9t-21 8.5t-8.5 20.5zM229 687q0 8 6 14t14.5 6t13.5 -6l301 -308q6 -6 6 -14t-6 -14l-300 -306q-5 -6 -13.5 -6t-14.5 5.5t-6 14t6 14.5
l286 292l-287 294q-6 6 -6 14z" />
    <glyph glyph-name="uniE63E" unicode="&#xe63e;" 
d="M613 800q0 -13 -8 -21l-384 -390l384 -393q8 -9 8 -21t-9 -21t-21 -8.5t-21 9.5l-404 413q-8 9 -8 21t8 21l404 410q9 9 21.5 9t21 -8.5t8.5 -20.5zM795 81q0 -8 -6 -14t-14.5 -6t-13.5 6l-301 308q-6 6 -6 14t6 14l300 306q5 6 13.5 6t14.5 -5.5t6 -14t-6 -14.5
l-286 -292l287 -294q6 -6 6 -14z" />
    <glyph glyph-name="uniE63F" unicode="&#xe63f;" 
d="M63 189l55 -56l392 404l393 -404l54 56l-447 460zM63 189z" />
    <glyph glyph-name="uniE640" unicode="&#xe640;" 
d="M153 385zM66 385q0 36 25.5 61.5t61.5 25.5t61.5 -25.5t25.5 -61.5t-25.5 -61.5t-61.5 -25.5t-61.5 25.5t-25.5 61.5zM512 385zM425 385q0 36 25.5 61.5t61.5 25.5t61.5 -25.5t25.5 -61.5t-25.5 -61.5t-61.5 -25.5t-61.5 25.5t-25.5 61.5zM871 385zM784 385
q0 36 25.5 61.5t61.5 25.5t61.5 -25.5t25.5 -61.5t-25.5 -61.5t-61.5 -25.5t-61.5 25.5t-25.5 61.5z" />
    <glyph glyph-name="uniE641" unicode="&#xe641;" 
d="M512 -66q-186 0 -318 132t-132 318t132 318t318 132t318 -132t132 -318t-132 -318t-318 -132zM512 793q-111 0 -205 -55t-149 -149t-55 -205t55 -205t149 -149t205 -55t205 55t149 149t55 205t-55 205t-149 149t-205 55zM567 137h-110v192h-192v110h192v192h110v-192h192
v-110h-192v-192z" />
    <glyph glyph-name="uniE642" unicode="&#xe642;" 
d="M912 181l-3 -3q-3 8 -9 14l-175 174q-10 10 -25 10t-25.5 -10.5t-10.5 -25.5t10 -25l175 -174q7 -6 15 -9l-2 -2q13 -18 13 -41q0 -27 -19.5 -47t-47.5 -20q-26 0 -46 18q-2 5 -6 8l-81 81l-61 60h1l-52 52q-64 -38 -139 -38q-113 0 -192 79.5t-79 191.5q0 35 9 69
l141 -142l3 -3q2 -2 4 -5q11 -10 26 -10t25 10l143 145q11 10 11 25t-11 25q-1 2 -2 3q-2 3 -4 5l-141 141q33 8 67 8q112 0 191.5 -79t79.5 -192v-8q-1 -4 -1 -7v-4q0 -5 -1 -11h3q4 -11 13.5 -18t20.5 -7q25 0 34 24l1 -1v5q1 4 1 8v3v15q0 93 -45.5 172t-124 124.5
t-171.5 45.5q-72 0 -137 -28q-11 -2 -20 -10l-12 -6l4 -4q-11 -23 7 -42l162 -162l-93 -93l-162 162q-19 20 -43 6l-4 4q-3 -6 -7 -13q-4 -6 -6 -13q-31 -68 -31 -143q0 -92 45.5 -171t124.5 -124.5t172 -45.5q63 0 122 22l155 -154q42 -49 106 -49q57 0 97.5 40.5
t40.5 97.5q0 53 -34 92z" />
    <glyph glyph-name="uniE643" unicode="&#xe643;" horiz-adv-x="1025" 
d="M512 834q-122 0 -226 -52.5t-164 -142.5t-60 -197q0 -79 34 -149.5t94 -124.5q22 -19 102.5 -77.5t149.5 -107.5l70 -49v116q122 0 226 52.5t164 143t60 197t-60 196.5t-164 142.5t-226 52.5zM289.5 382q-24.5 0 -42 17t-17.5 41t17.5 41t42 17t42.5 -17t18 -41t-18 -41
t-42.5 -17zM514 382q-25 0 -42.5 17t-17.5 41t17.5 41t42.5 17t42.5 -17t17.5 -41t-17.5 -41t-42.5 -17zM740 382q-25 0 -42.5 17t-17.5 41t17.5 41t42.5 17t42.5 -17t17.5 -41t-17.5 -41t-42.5 -17z" />
    <glyph glyph-name="uniE644" unicode="&#xe644;" 
d="M542 819l-1 1l-1 1q-12 11 -28 11t-28 -11l-2 -2q-24 -26 -44 -48q-67 -75 -117 -154q-126 -194 -129 -366v-5v-3q0 -58 22 -112q12 -29 30 -56q44 -64 114.5 -101.5t153.5 -37.5q87 0 160.5 41t116.5 111.5t43 154.5q0 72 -23 150t-55.5 139t-76 122.5t-74 97.5
t-61.5 67zM512 48q-46 0 -88 20q99 22 172.5 92t99.5 167q16 -38 16 -79q0 -83 -58.5 -141.5t-141.5 -58.5z" />
    <glyph glyph-name="uniE645" unicode="&#xe645;" horiz-adv-x="1025" 
d="M906 -38h-844v760h506v-57h-450v-647h732v394h56v-450zM544 228l-54 106l-106 53l326 326l40 -40l-271 -270l53 -27l27 -53l271 271l39 -40zM909 594l-159 159l20 20q33 33 79.5 33t79.5 -33t33 -79.5t-33 -79.5zM835 748l69 -69q2 7 2 14q0 24 -17 40q-23 23 -54 15z
M264 108l78 232l53 -17l-42 -126l126 42l18 -53z" />
    <glyph glyph-name="uniE646" unicode="&#xe646;" 
d="M849 417q-127 -27 -162 -37q-16 -4 -35.5 11t-35.5 32.5t-19 18.5q-2 -5 -20 -54t-26 -74q20 1 79.5 -20t61.5 -35l59 -243q1 -2 2 -5.5t1.5 -12.5t-2.5 -17t-14 -17t-29 -14q-19 -5 -32 -3t-20 8t-10.5 13t-4.5 12l-1 6q-45 171 -49 182q-3 7 -48 16.5t-60 5.5
q-7 -2 -24 -40.5t-38.5 -77.5t-39.5 -43q-23 -6 -79.5 17t-84 38.5t-44.5 25.5q-2 1 -6.5 2t-14 7t-16.5 13.5t-11 21t-1 29.5q11 49 65 43l7 -2q2 -1 4.5 -2t10.5 -5l14 -8q8 -4 18.5 -9.5t19 -9.5t19 -8.5t17.5 -6.5l12 -4q7 -2 8 0q6 3 11 16t13 35.5t15 37.5q0 7 11 41
t22 65l11 30l15 65q3 19 -1 21q-17 9 -34 -20q-41 -70 -83 -128q-12 -17 -28.5 -23t-29.5 -1t-24 15.5t-12 26.5t7 32q1 2 13.5 23.5t19 32.5t20 33.5t23.5 36.5t23 30.5t25 27.5t22 16q40 19 96.5 25.5t114.5 -4.5q25 -6 50.5 -23.5t41.5 -35t30.5 -34.5t17.5 -19
q7 -5 35.5 0.5t53.5 12.5l25 8q3 1 7 2t14.5 1.5t19 -1.5t17.5 -10.5t13 -23.5t1 -26.5t-10.5 -19t-15.5 -12t-14 -5.5l-7 -2v0zM616 631q-39 -11 -74 9t-45.5 59t9.5 73.5t59 45.5t74 -9t45.5 -59t-9.5 -73.5t-59 -45.5v0zM616 631z" />
    <glyph glyph-name="uniE647" unicode="&#xe647;" 
d="M120 -148h643q23 0 39.5 16.5t16.5 39.5v410l-56 -54v-356h-643v699h393l56 55l-1 1h-448q-23 0 -39.5 -16t-16.5 -40v-699q0 -23 16.5 -39.5t39.5 -16.5zM916 711q-38 37 -83 37q-50 0 -90 -40l-383 -383q-5 -4 -6 -10q-2 -8 -61 -204q-5 -13 6 -24q6 -6 16 -6q4 0 7 1
q117 39 200 64q6 1 10 5q376 372 386 382q43 44 42 91q-1 46 -44 87zM878 572q-24 -25 -363 -358l-17 -17q-32 -10 -134 -43q31 103 41 138q363 362 378 377q23 23 50 23q22 0 44 -21q27 -26 27 -48q0 -24 -26 -51z" />
    <glyph glyph-name="uniE648" unicode="&#xe648;" 
d="M853 -43h-682q-28 0 -48 21t-20 50v632q0 29 20 50t48 21h111v53q0 11 7.5 19t18 8t18 -8t7.5 -19v-53h153v53q0 11 7.5 19t18.5 8t18.5 -8t7.5 -19v-53h153v53q0 11 7.5 19t18 8t18 -8t7.5 -19v-53h111q28 0 48 -21t20 -50v-632q0 -29 -20 -50t-48 -21zM870 660
q0 7 -5 12t-12 5h-111v-53q0 -11 -7.5 -19t-18 -8t-18 8t-7.5 19v53h-153v-53q0 -11 -7.5 -19t-18.5 -8t-18.5 8t-7.5 19v53h-153v-53q0 -11 -7.5 -19t-18 -8t-18 8t-7.5 19v53h-111q-7 0 -12 -5t-5 -12v-632q0 -7 5 -12t12 -5h682q7 0 12 5t5 12v632zM282 411v80h102v-80
h-102zM282 277v80h102v-80h-102zM282 144v80h102v-80h-102zM461 144v80h102v-80h-102zM461 277v80h102v-80h-102zM461 411v80h102v-80h-102zM640 144v80h102v-80h-102zM640 277v80h102v-80h-102zM640 411v80h102v-80h-102z" />
    <glyph glyph-name="uniE649" unicode="&#xe649;" horiz-adv-x="2164" 
d="M1525 352q0 -24 -16.5 -40.5t-40 -16.5t-40 16.5t-16.5 40.5v272h-116v-448q0 -24 -16.5 -40.5t-40 -16.5t-40 16.5t-16.5 40.5v448h-116v-272q0 -24 -16.5 -40.5t-40 -16.5t-40 16.5t-16.5 40.5v272h-116v-448q0 -24 -16.5 -40.5t-40 -16.5t-40 16.5t-16.5 40.5v448
h-116v-272q0 -24 -16.5 -40.5t-40 -16.5t-40 16.5t-16.5 40.5v272h-116v-448q0 -24 -16.5 -40.5t-40 -16.5t-40.5 16.5t-17 40.5v448h-107v-623h1853v623h-487v-272z" />
    <glyph glyph-name="uniE64A" unicode="&#xe64a;" horiz-adv-x="1037" 
d="M686 245q-8 -8 -20 -8t-20 8t-8 20t8 20l96 96l-41 41l-158 -158q-9 -9 -20.5 -9t-20 8.5t-8.5 20t9 20.5l158 158l-41 41l-96 -96q-8 -8 -20 -8t-20 8t-8 20t8 20l96 97l-41 41l-159 -159q-8 -8 -19.5 -8t-20 8t-8.5 20t8 20l159 159l-41 41l-96 -97q-9 -8 -20.5 -8
t-20 8.5t-8.5 20t9 20.5l96 96l-41 41l-159 -159q-8 -8 -20 -8t-20 8t-8 20t8 20l159 159l-39 38l-220 -221l656 -656l221 221l-173 172zM686 245z" />
    <glyph glyph-name="uniE64B" unicode="&#xe64b;" horiz-adv-x="1026" 
d="M960 605q6 44 -25 102l-132 -141l-108 101l130 139q-57 25 -88 18q-100 -19 -162 -75.5t-62 -143.5q0 -70 42 -127l-10 10q-23 -21 -58 -52l-218 220l-19 85l-118 59l-52 -54l54 -119l89 -12l218 -221q-285 -258 -371 -341q-13 -13 9 -45.5t55 -54.5t46 -9q88 86 338 371
l76 -77l-10 -12q-6 -8 -14.5 -24t-5.5 -23q12 -32 73.5 -92.5t116 -105.5t55.5 -44l149 147q-7 9 -19.5 23.5t-46 53t-63 69t-63 59t-54.5 36.5q-9 3 -26.5 -8.5t-31.5 -24.5l-13 -13l-81 83l51 59l-8 8q60 -43 134 -43q89 0 150.5 63.5t72.5 155.5zM155 -6q-13 0 -22 9.5
t-9 22.5t9 22t22 9t22.5 -9t9.5 -22t-9.5 -22.5t-22.5 -9.5z" />
    <glyph glyph-name="uniE64C" unicode="&#xe64c;" 
d="M482 775q-114 0 -210.5 -56t-152 -152.5t-55.5 -210t56 -209.5t152 -152t210 -56t210 56t152 152t56 210h-418v418zM542 835v-418h419q0 114 -56 210t-152.5 152t-210.5 56zM542 835z" />
    <glyph glyph-name="uniE64D" unicode="&#xe64d;" 
d="M572.5 542q-22.5 0 -37.5 14.5t-15 37.5q0 22 15 36.5t37 14.5t37 -14.5t15 -36.5q0 -23 -14.5 -37.5t-37 -14.5zM582 219q-29 -45 -57.5 -67.5t-68.5 -22.5q-29 4 -41.5 22.5t-5.5 41.5l74 247q4 11 -7 15q-9 4 -26 -15l-44 -56v30q25 38 62 65t65 27q26 -3 38.5 -21.5
t8.5 -42.5l-76 -249q-1 -10 7 -14q9 -3 27 16l45 54q1 -6 0.5 -10.5t-1 -11.5t-0.5 -8zM512 834q-186 0 -318 -132t-132 -318t132 -318t318 -132t318 132t132 318t-132 318t-318 132z" />
    <glyph glyph-name="uniE64E" unicode="&#xe64e;" 
d="M925 75h-682q-16 0 -26.5 11t-10.5 26v682q0 16 10.5 26.5t26 10.5t26.5 -10.5t11 -26.5v-645h645q15 0 26 -11t11 -26t-11 -26t-26 -11zM781 -63q-15 0 -26 10.5t-11 26.5v126q0 15 11 26t26.5 11t26 -11t10.5 -26v-126q0 -16 -10.5 -26.5t-26.5 -10.5zM781 192
q-15 0 -26 11t-11 26v390h-381q-15 0 -26 11t-11 26t11 26t26 11h418q16 0 26.5 -11t10.5 -26v-427q0 -15 -10.5 -26t-26.5 -11zM224 619h-125q-15 0 -26 11t-11 26t11 26t26 11h125q15 0 26 -11t11 -26t-11 -26t-26 -11z" />
    <glyph glyph-name="uniE64F" unicode="&#xe64f;" 
d="M136 715q66 66 160 66q93 0 159 -66l356 -356l101 -101q45 -45 45 -110t-45.5 -110.5t-110 -45.5t-110.5 46l-202 201h1l-241 241q-26 26 -26 62t25.5 61t61.5 25t61 -25l386 -386l-24 -24l-386 386q-15 15 -37 15t-37 -15q-16 -16 -16 -37.5t16 -36.5l438 -438h-1l5 -5
q36 -36 86.5 -36t86 35.5t35.5 86.5t-35 86l-202 202l-255 255q-56 56 -135.5 56t-135.5 -56t-56 -135.5t56 -135.5l400 -400l-24 -24l-400 400q-66 66 -66 159.5t66 159.5z" />
    <glyph glyph-name="uniE650" unicode="&#xe650;" 
d="M579 799q0 12 -8 20t-19 8h-80q-12 0 -19.5 -8t-7.5 -20v-143h134v143zM512 140l175 194l-2 2q5 15 -5 26t-23 6l-2 1h-76v201h-134v-200h-76l-2 -2q-13 5 -23 -6t-5 -26l-2 -2zM929 456h-54q-11 0 -19 -8.5t-8 -20.5v-372h-672v372q0 12 -8 20.5t-19 8.5h-54
q-11 0 -19 -8.5t-8 -20.5v-458q0 -12 8 -20t19 -8h41h779h14q11 0 19 8t8 20v458q0 12 -8 20.5t-19 8.5zM929 456z" />
    <glyph glyph-name="uniE651" unicode="&#xe651;" 
d="M195 703q105 105 253 126q89 13 175.5 -9t158.5 -76t117.5 -130.5t57.5 -165.5q18 -121 -27 -232t-139 -185.5t-215 -91.5q-160 -23 -297 60q-12 7 -15 20t4 24.5t20 14.5t24 -4q118 -72 255 -52q103 15 184 79t119.5 159t23.5 199q-11 76 -50 141.5t-101 112
t-135.5 65.5t-150.5 8q-103 -15 -184 -79t-119.5 -159t-23.5 -199q12 -83 57 -153q7 -11 4.5 -24t-14 -20.5t-24.5 -4.5t-20 14q-52 82 -66 179q-13 89 9 175t76 159q19 26 43 49zM195 703zM548 357h196q13 0 22.5 9t9.5 22.5t-9.5 23t-22.5 9.5h-196l-1 194q0 14 -9.5 23
t-22.5 9t-22.5 -9.5t-9.5 -22.5l1 -194h-194q-14 0 -23.5 -9t-9.5 -22.5t9.5 -23t23.5 -9.5h194l1 -197q0 -14 9 -23t22.5 -9t23 9t9.5 23z" />
    <glyph glyph-name="uniE652" unicode="&#xe652;" 
d="M954 695q8 -9 9 -20.5t1 -17.5v-587q0 -51 -35 -86t-93 -35h-631q-59 0 -93.5 29.5t-34.5 89.5v639q0 59 34.5 94.5t93.5 35.5h579q11 0 22 -2.5t15 -7.5zM761 734q-2 34 -36 34h-476q-17 1 -26.5 -8.5t-9.5 -22.5v-178q0 -11 4.5 -22.5t13.5 -21t20.5 -15.5t24.5 -6h415
q29 0 49.5 17.5t20.5 52.5v170zM761 243q0 47 -48 48h-451q-25 0 -37 -13t-12 -35v-160h548v160z" />
    <glyph glyph-name="uniE653" unicode="&#xe653;" horiz-adv-x="1000" 
d="M500 396zM75 396q0 115 57 213t155 155t213 57t213 -57t155 -155t57 -213t-57 -213t-155 -155t-213 -57t-213 57t-155 155t-57 213z" />
    <glyph glyph-name="uniE654" unicode="&#xe654;" 
d="M947 648q-19 20 -46 20.5t-47 -19.5l-448 -450l-232 238q-18 19 -44 18t-45.5 -21t-20.5 -47t17 -46l283 -290q18 -19 44.5 -18t45.5 21q11 9 134 133.5t240 244.5l118 120q20 20 20 48t-19 48z" />
    <glyph glyph-name="uniE655" unicode="&#xe655;" 
d="M404 494h-218l327 328l327 -328h-218v-546h-218v546zM404 494z" />
    <glyph glyph-name="uniE656" unicode="&#xe656;" 
d="M404 275v547l218 -1v-546h218l-327 -327l-327 327h218zM404 275z" />
    <glyph glyph-name="uniE657" unicode="&#xe657;" horiz-adv-x="1025" 
d="M766 479q0 7 -4.5 11.5t-11.5 4.5h-430l74 75q11 11 0 21.5t-22 -0.5l-125 -127h503q7 0 11.5 4.5t4.5 10.5zM242 279q0 -6 4.5 -10.5t11.5 -4.5h433l-75 -75q-11 -11 0 -22q4 -5 10.5 -5t10.5 5l128 127h-507q-7 0 -11.5 -4.5t-4.5 -10.5zM242 279zM512 -66
q91 0 174.5 35.5t144 96t96 144t35.5 174.5t-35.5 174.5t-96 144t-144 96t-174.5 35.5t-174.5 -35.5t-144 -96t-96 -144t-35.5 -174.5t35.5 -174.5t96 -144t144 -96t174.5 -35.5zM512 788q110 0 203 -54t147 -147t54 -203t-54 -203t-147 -147t-203 -54t-203 54t-147 147
t-54 203t54 203t147 147t203 54zM512 788z" />
    <glyph glyph-name="uniE658" unicode="&#xe658;" 
d="M896 820h-366q-8 0 -14 -1t-12.5 -5.5t-9 -7t-12 -12.5t-13.5 -15l-273 -272l440 -439l273 272q3 3 11 10.5t10 10t7 8.5t7 10.5t3.5 10.5t1.5 13v365q0 22 -15.5 37t-37.5 15zM752 470q-32 -32 -77 -32t-77 32t-32 77t32 77t77 32t77 -32t32 -77t-32 -77zM109 420
q-34 -33 -34 -80t34 -80l280 -279q33 -33 80 -33t80 33l48 48l-439 440zM637 586q-16 -16 -16 -39t16 -38.5t38.5 -15.5t38.5 15.5t16 38.5t-16 39t-38.5 16t-38.5 -16z" />
    <glyph glyph-name="uniE659" unicode="&#xe659;" 
d="M64 704h127v-128h-127v128zM276 704h682v-128h-682v128zM64 448h127v-127h-127v127zM276 448h682v-127h-682v127zM64 193h127v-128h-127v128zM276 193h682v-128h-682v128z" />
    <glyph glyph-name="uniE65A" unicode="&#xe65a;" 
d="M65 831h382v-382h-382v382zM577 831h382v-382h-382v382zM65 319h382v-382h-382v382zM577 319h382v-382h-382v382z" />
    <glyph glyph-name="uniE65B" unicode="&#xe65b;" 
d="M65 638h893v-63h-893v63zM769 756l188 -116l-33 -54l-188 116zM741 498l181 127l36 -51l-181 -127zM64 191h893v-63h-893v63zM287 256l-188 -117l-33 54l188 116zM100 181l183 -125l-36 -52l-182 125z" />
    <glyph glyph-name="uniE65C" unicode="&#xe65c;" horiz-adv-x="1025" 
d="M771 474q0 8 -7 14.5t-14 6.5h-430l77 75q5 4 4.5 11.5t-5.5 12.5q-5 4 -14 3t-13 -6l-133 -138h514q7 0 14 5.5t7 15.5v0zM237 285q0 -9 6.5 -15t14.5 -6h433l-77 -74q-5 -5 -4.5 -12.5t5 -12t14.5 -4.5q6 0 11 5l136 139h-518q-7 0 -14 -6t-7 -14v0zM512 -66
q91 0 174.5 35.5t144 96t96 144t35.5 174.5t-35.5 174.5t-96 144t-144 96t-174.5 35.5t-174.5 -35.5t-144 -96t-96 -144t-35.5 -174.5t35.5 -174.5t96 -144t144 -96t174.5 -35.5v0zM512 788q110 0 203 -54t147 -147t54 -203t-54 -203t-147 -147t-203 -54t-203 54t-147 147
t-54 203t54 203t147 147t203 54v0zM512 788z" />
    <glyph glyph-name="uniE65D" unicode="&#xe65d;" horiz-adv-x="1785" 
d="M1666 402l-419 419q-8 8 -19 8t-18.5 -8t-7.5 -18.5t7 -18.5l403 -403l-403 -402q-7 -8 -7 -19t7.5 -18.5t18.5 -7.5t19 8l419 419q8 8 7 20q1 13 -7 21zM1666 402zM112 407q-8 -8 -7 -20q-1 -13 7 -21l419 -419q8 -8 19 -8t18.5 8t7.5 18.5t-7 18.5l-403 403l403 402
q7 8 7 19t-7.5 18.5t-18.5 7.5t-19 -8zM112 407zM517 586h685v-63h-685v63zM517 273h685v-65h-685v65z" />
    <glyph glyph-name="uniE65E" unicode="&#xe65e;" 
d="M279 -42h-129q-26 0 -44.5 19t-18.5 45v740q0 26 18.5 45t44.5 19h674q26 0 44.5 -19t18.5 -45v-185q0 -8 -5.5 -14t-14 -6t-14 6t-5.5 14v185q0 10 -7 17t-17 7h-674q-10 0 -17 -7t-7 -17v-740q0 -10 7 -17t17 -7h129q8 0 14 -6t6 -14t-6 -14t-14 -6zM717 665h-501
q-9 0 -14.5 6t-5.5 14t5.5 14t14.5 6h501q8 0 14 -6t6 -14t-6 -14t-14 -6zM447 456h-231q-9 0 -14.5 6t-5.5 14t5.5 14t14.5 6h231q8 0 13.5 -6t5.5 -14t-5.5 -14t-13.5 -6zM607 561h-391q-9 0 -14.5 5.5t-5.5 14t5.5 14t14.5 5.5h391q9 0 14.5 -5.5t5.5 -14t-5.5 -14
t-14.5 -5.5zM413 -54q-8 0 -14 7q-8 8 -5 19l36 128q1 5 5 9l360 360q9 9 22 9t23 -9l85 -86q10 -10 10 -23t-10 -22l-47 -48q-5 -5 -13.5 -5t-14.5 5l-58 58q-5 6 -5 14.5t5.5 14t14 5.5t13.5 -6l45 -44l27 28l-75 75l-350 -350l-26 -94l102 19l203 204q6 7 15.5 15
t33 20.5t45.5 14.5q9 1 15 -4.5t6.5 -13.5t-5 -14.5t-13.5 -6.5q-33 -3 -68 -38l-1 -1l-208 -208q-4 -4 -10 -5l-139 -26q-2 -1 -4 -1z" />
    <glyph glyph-name="uniE65F" unicode="&#xe65f;" 
d="M902 267l-141 56q-27 10 -38 20q-10 10 0 43q2 5 22 35t38.5 68.5t18.5 71.5q0 85 -49 145.5t-119 60.5q-26 0 -51 -10q28 -19 51 -46q43 0 75 -40q36 -45 36 -110q0 -36 -47 -109q-2 -2 -4 -6q-21 -31 -25 -44q-5 -18 -6 -33q-4 -41 21 -66q19 -18 56 -33l142 -55h1
q7 -3 12 -8.5t5 -10.5v-14q-3 -1 -7 -1h-46q21 -25 29 -56h17q27 0 45 15.5t18 40.5v15q0 23 -15.5 43t-38.5 28zM763 175l-160 62q-31 12 -42 24q-12 11 -1 47q2 6 25 40t43.5 77.5t20.5 80.5q0 97 -55.5 165.5t-133.5 68.5t-133.5 -68.5t-55.5 -165.5q0 -27 12 -61.5
t25 -57.5t28.5 -47.5t16.5 -25.5q6 -14 5.5 -30t-5.5 -22q-5 -5 -17.5 -11t-22.5 -10l-10 -3l-145 -64q-26 -10 -43 -32t-17 -48v-17q0 -29 20.5 -46t50.5 -17h583q31 0 51 17t20 46v17q0 26 -17 48.5t-43 32.5z" />
    <glyph glyph-name="uniE660" unicode="&#xe660;" 
d="M954 571q-36 86 -102.5 152.5t-152.5 102.5q-89 38 -187 38t-187 -38q-86 -36 -152.5 -102.5t-102.5 -152.5q-38 -89 -38 -187t38 -187q36 -86 102.5 -152.5t152.5 -102.5q89 -38 187 -38t187 38q86 36 152.5 102.5t102.5 152.5q38 89 38 187t-38 187zM710 181
q-10 -10 -24 -10t-24 10l-154 154l-154 -154q-10 -10 -24 -10t-24 10t-10 24t10 24l153 154l-154 154q-10 10 -10 24t10 24t24.5 10t24.5 -10l154 -154l154 154q10 10 24 10t24 -10t10 -24t-10 -24l-154 -154l154 -154q10 -10 10 -24t-10 -24z" />
    <glyph glyph-name="uniE661" unicode="&#xe661;" 
d="M777 -54h-532q-44 0 -75.5 32t-31.5 78v550q0 46 31.5 78t75.5 32h79v55h72q18 25 48.5 40t66.5 15t66.5 -15t47.5 -40h72v-55h80q44 0 75 -32t31 -78v-550q0 -46 -31 -78t-75 -32zM644 716h-59q0 23 -22 39t-52.5 16t-52 -16t-21.5 -39h-59v-110h266v110zM830 606
q0 23 -15.5 39t-37.5 16h-80v-110h-373v110h-79q-22 0 -38 -16t-16 -39v-550q0 -23 16 -39t38 -16h532q22 0 37.5 16t15.5 39v550zM697 111h-373q-11 0 -18.5 8t-7.5 19.5t7.5 19.5t18.5 8h373q11 0 19 -8t8 -19.5t-8 -19.5t-19 -8zM697 249h-373q-11 0 -18.5 8t-7.5 19.5
t7.5 19.5t18.5 8h373q11 0 19 -8t8 -19.5t-8 -19.5t-19 -8zM697 386h-373q-11 0 -18.5 8t-7.5 19.5t7.5 19.5t18.5 8h373q11 0 19 -8t8 -19.5t-8 -19.5t-19 -8z" />
    <glyph glyph-name="uniE662" unicode="&#xe662;" 
d="M761 -60h-497q-46 0 -78.5 32.5t-32.5 78.5v612q0 46 32.5 78.5t78.5 32.5v56h55v-56h166v56h55v-56h166v56h55v-56q46 0 78.5 -32.5t32.5 -78.5v-612q0 -46 -32.5 -78.5t-78.5 -32.5zM817 663q0 23 -16.5 39.5t-39.5 16.5h-497q-23 0 -39.5 -16.5t-16.5 -39.5v-612
q0 -23 16.5 -39.5t39.5 -16.5h497q23 0 39.5 16.5t16.5 39.5v612zM734 162h-443q-11 0 -19 8.5t-8 20t8 19.5t19 8h443q11 0 19 -8t8 -19.5t-8 -20t-19 -8.5zM734 329h-443q-11 0 -19 8.5t-8 20t8 19.5t19 8h443q11 0 19 -8t8 -19.5t-8 -20t-19 -8.5zM734 496h-443
q-11 0 -19 8t-8 19.5t8 20t19 8.5h443q11 0 19 -8.5t8 -20t-8 -19.5t-19 -8z" />
    <glyph glyph-name="uniE663" unicode="&#xe663;" 
d="M147 36q-8 0 -14 6t-6 15l-3 675q0 8 6 14t15 6q8 0 14 -6t6 -14l3 -675q0 -9 -6 -15t-14 -6h-1zM239 -54q-46 0 -79 32.5t-33 78.5q0 8 6 14t14 6q9 0 15 -6t6 -14q0 -29 20.5 -50t50.5 -21q8 0 14 -5.5t6 -14t-5.5 -14.5t-14.5 -6zM145 711q-9 0 -15 6t-6 15
q0 38 27.5 65.5t65.5 27.5l547 3q9 0 15 -6t6 -14.5t-6 -14.5t-15 -6l-547 -3q-21 0 -36.5 -15.5t-15.5 -36.5q0 -9 -6 -15t-14 -6zM840 21q-8 0 -14 6t-6 14l-2 548q0 8 6 14t14 6q9 0 15 -6t6 -14l2 -547q0 -9 -6 -15t-14 -6h-1zM239 -54q-8 0 -14 5.5t-6.5 14t5.5 14.5
t15 6l529 3q8 0 14 -6t6 -14.5t-6 -14.5t-14 -6zM839 386q-8 0 -14 6t-6.5 14.5t5.5 14.5t15 6h36q7 0 11.5 4.5t4.5 11.5v109q0 7 -5 11.5t-11 4.5h-37q-8 0 -14 6t-6 14.5t6 14.5t14 6h37q23 0 40 -16.5t17 -39.5v-110q0 -23 -16.5 -40t-39.5 -17h-37zM840 203q-9 0 -15 6
t-6 14.5t6 14.5t15 6h36q7 1 11.5 5.5t4.5 11.5v109q0 7 -5 11.5t-11 4.5h-37q-8 0 -14 6t-6.5 14.5t5.5 14.5t15 6h36h1q23 0 39.5 -16.5t17.5 -40.5v-109q0 -24 -16.5 -40.5t-40.5 -16.5zM840 21q-8 0 -14 6t-6 14.5t6 14.5t14 6h37q6 0 11 5t5 11l-1 110q0 6 -4.5 11
t-11.5 5l-36 -1q-9 0 -15 6t-6 14.5t6 14.5t15 6h36q24 0 40.5 -16.5t16.5 -39.5l1 -110q0 -23 -16.5 -40t-40.5 -17h-36h-1zM838 607zM838 568q-8 0 -14 6t-6 14q0 22 -15.5 37.5t-37.5 15.5h-1l-546 -2q-39 0 -66.5 27t-27.5 66q0 8 6 14t14.5 6t14.5 -6t6 -14
q0 -22 15.5 -37.5t37.5 -15.5l547 3h1q38 -1 65.5 -28t27.5 -65q0 -9 -6 -15t-15 -6zM840 94q-8 0 -14 6t-6 14l-3 620q0 22 -15.5 37.5t-36.5 15.5h-1q-8 0 -14 6t-6 14.5t6 14.5t14 6h1q38 0 65.5 -27.5t27.5 -65.5l3 -620q0 -9 -6 -15t-15 -6zM765 641q-8 0 -14 6t-6 14
q-1 17 -1 37q0 6 -4.5 11t-11.5 5l-583 -3q-9 0 -15 6t-6 14.5t6 14.5t15 6l583 2q24 0 40.5 -16.5t16.5 -39.5v-6v-7v-5v-6v-4v-4v-2v-2v-1q0 -8 -5.5 -14t-14.5 -6zM768 -52q-9 0 -15 6t-6 14.5t6 14.5t15 6q21 0 36.5 15.5t15.5 36.5q0 9 6 15t14 6q9 0 15 -6t6 -14
q0 -39 -27 -66.5t-66 -27.5zM642 490v-41l-334 -1v41zM642 340v-41l-333 -1v41z" />
    <glyph glyph-name="uniE664" unicode="&#xe664;" 
d="M808 -49h-597q-45 0 -76.5 32t-31.5 78v606q0 46 31.5 78t76.5 32h109v28q0 11 8 19t19 8t19 -8t8 -19v-28h272v28q0 11 7.5 19t19 8t19.5 -8t8 -19v-28h108q45 0 77 -32t32 -78v-606q0 -46 -32 -78t-77 -32zM863 667q0 23 -16 39t-39 16h-108v-27q0 -12 -8 -20t-19.5 -8
t-19 8t-7.5 20v27h-272v-27q0 -12 -8 -20t-19 -8t-19 8t-8 20v27h-109q-22 0 -38 -16t-16 -39v-55h706v55zM863 557h-706v-496q0 -23 16 -39t38 -16h597q23 0 39 16t16 39v496zM754 61h-54q-23 0 -38.5 16t-15.5 39v55q0 23 15.5 39t38.5 16h54q23 0 38.5 -16t15.5 -39v-55
q0 -23 -15.5 -39t-38.5 -16zM754 171h-54v-55h54v55zM754 281h-54q-23 0 -38.5 16.5t-15.5 38.5v55q0 23 15.5 39.5t38.5 16.5h54q23 0 38.5 -16.5t15.5 -39.5v-55q0 -22 -15.5 -38.5t-38.5 -16.5zM754 391h-54v-55h54v55zM537 61h-54q-23 0 -39 16t-16 39v55q0 23 16 39
t39 16h54q22 0 38 -16t16 -39v-55q0 -23 -16 -39t-38 -16zM537 171h-54v-55h54v55zM537 281h-54q-23 0 -39 16.5t-16 38.5v55q0 23 16 39.5t39 16.5h54q22 0 38 -16.5t16 -39.5v-55q0 -22 -16 -38.5t-38 -16.5zM537 391h-54v-55h54v55zM320 61h-54q-23 0 -39 16t-16 39v55
q0 23 16 39t39 16h54q22 0 38 -16t16 -39v-55q0 -23 -16 -39t-38 -16zM320 171h-54v-55h54v55zM320 281h-54q-23 0 -39 16.5t-16 38.5v55q0 23 16 39.5t39 16.5h54q22 0 38 -16.5t16 -39.5v-55q0 -22 -16 -38.5t-38 -16.5zM320 391h-54v-55h54v55z" />
    <glyph glyph-name="uniE665" unicode="&#xe665;" 
d="M854 703l-129 114q-9 9 -21 9h-509q-13 0 -21.5 -9.5t-8.5 -22.5v-734q0 -14 9 -23l90 -83q18 -14 42 0l92 84l95 -87q14 -8 21.5 -7.5t20.5 7.5l95 87l96 -87q12 -9 20 -9q9 0 21 9l86 78q10 10 10 23v628q0 13 -9 23zM815 51l-59 -56l-99 82q-22 17 -43 0l-100 -82
l-100 82q-12 9 -21 9q-10 0 -22 -9l-92 -82l-67 64v721h482v-87q0 -9 5.5 -15t12.5 -6h103v-621zM627 566q-7 33 -57.5 52t-109.5 19t-111 -18.5t-61 -52.5v-271q7 -54 157 -61v40q-30 1 -52.5 4.5t-34 7.5t-18.5 9t-8.5 9t-1.5 7v72q0 -1 2 -3.5t11 -9t22 -11t38.5 -8.5
t56.5 -4h38v47h-38q-33 0 -58.5 4.5t-38.5 11t-21 15t-10 14t-2 9.5v63q0 -1 1.5 -3t10 -7.5t21 -10t37 -8t56.5 -3.5q51 0 87 8.5t46 16.5l11 9q4 2 9 6.5t12.5 18.5t5.5 28zM457 516q-55 1 -83.5 12.5t-26.5 29.5q2 16 30.5 30.5t79.5 13.5q55 -1 88 -12t35 -30
q1 -19 -33.5 -32t-89.5 -12zM516 294l146 255q13 23 35 10l67 -38q22 -13 8 -36l-146 -256l-90 -55q-10 -5 -16 -1.5t-6 14.5zM540 283l-2 -80l68 42zM744 486q5 9 4.5 11t-9.5 7l-44 26q-8 5 -10.5 4t-6.5 -9l-27 -46l66 -39zM619 268l85 149l-66 39l-85 -150
q2 -1 27.5 -16t38.5 -22z" />
    <glyph glyph-name="uniE666" unicode="&#xe666;" 
d="M883 753l-2 2q-67 66 -161.5 66.5t-160.5 -66.5l-487 -484l4 -3q-6 -5 -6 -15v-291q0 -20 18 -20h292q10 0 16 7l1 -1l486 484q67 66 66.5 160.5t-66.5 160.5zM151 25q-8 9 -16 11.5t-23 -0.5v180l103 -3l3 -99l-1 -23h1v-2l23 1l99 -3l4 -103h-183q5 27 -10 41zM675 460
l-333 -332l-84 3l-3 87l332 330zM396 6l-1 -2l-10 -10l-4 110l1 5l323 322l59 -59l-367 -366h-1v0zM528 666l29 29l266 -264l-30 -30zM130 270h2v1l366 365l59 -58l-325 -324l-114 4zM853 461l-1 -1l-265 265l1 1q54 54 131.5 54t131.5 -54l2 -2q55 -55 55 -131.5
t-55 -131.5zM853 461z" />
    <glyph glyph-name="uniE667" unicode="&#xe667;" 
d="M899 116l-250 164h-222v-219q0 -23 -16.5 -39t-39.5 -16h-83q-23 0 -39 16t-16 39v219v3v2q-75 14 -121 63t-46 123q0 88 63.5 139.5t158.5 51.5h361l250 164q23 0 39 -16t16 -38v-602q0 -22 -16 -38t-39 -16zM288 88q0 -11 8 -19t20 -8h28q11 0 19 8t8 19v192h-55h-28
v-192zM288 608q-20 0 -39.5 -2t-43.5 -11t-41.5 -23t-29.5 -40t-12 -60.5t12 -60.5t30 -40t42 -23t43 -11.5t39 -2.5h222v274h-222zM649 391v5v48v27v137h-83v-274h83v57zM899 239v464v69l-194 -137v-55v-218v-55l194 -137v69z" />
    <glyph glyph-name="uniE668" unicode="&#xe668;" 
d="M928 -6h-833q-13 0 -22 9t-9 22v253q0 13 9 22.5t22 9.5t22 -9.5t9 -22.5v-221h771v221q0 13 9 22.5t22 9.5t22 -9.5t9 -22.5v-253q0 -13 -9 -22t-22 -9zM650 455l-107 -128v458q0 13 -9 22.5t-22.5 9.5t-23 -9.5t-9.5 -22.5v-457l-106 127q-9 10 -22.5 10t-23 -9.5
t-9.5 -23t9 -22.5l160 -192q10 -10 25 -9q14 -1 24 9l160 192q9 9 9 22.5t-9.5 23t-23 9.5t-22.5 -10z" />
    <glyph glyph-name="uniE669" unicode="&#xe669;" 
d="M611 -25v60q130 29 208 124t78 225q0 131 -79.5 227.5t-206.5 121.5v60q147 -22 245 -137.5t98 -271.5t-98 -271.5t-245 -137.5zM468 33l-257 175h-86q-24 0 -40.5 17.5t-16.5 41.5v234q0 24 16.5 41.5t40.5 17.5h86l257 175q24 0 40.5 -17t16.5 -41v-586
q0 -24 -16.5 -41t-40.5 -17zM211 472q0 12 -8.5 20.5t-20.5 8.5h-29q-11 0 -19.5 -8.5t-8.5 -20.5v-176q0 -12 8.5 -20.5t19.5 -8.5h29q12 0 20.5 8.5t8.5 20.5v176zM468 165v438v74l-200 -128v-38v-4v-6v-234v-48l200 -128v74zM783 384q0 -77 -49.5 -134t-122.5 -68v59
q49 10 81.5 50t32.5 93t-32.5 93t-81.5 50v59q73 -11 122.5 -68t49.5 -134z" />
    <glyph glyph-name="uniE66A" unicode="&#xe66a;" 
d="M731 156h64v127h-64v-127zM255 220h127v69h-127v-69zM446 220h128v69h-128v-69zM255 378h127v70h-127v-70zM446 378h128v70h-128v-70zM731 347h64v128h-64v-128zM255 563h127v69h-127v-69zM446 563h128v69h-128v-69zM668 589h190v-548h-190v548zM204 748h421v-707h-421
v707zM158 793v-752h-93v-45h890v45h-57v591h-230v161h-510z" />
    <glyph glyph-name="uniE66B" unicode="&#xe66b;" 
d="M801 -42h-596q-9 0 -15 6t-6 15v121q0 8 6 14t14.5 6t14.5 -6t6 -14v-101h556v101q0 8 6 14t14.5 6t14.5 -6t6 -14v-121q0 -9 -6 -15t-15 -6zM423 543q-10 0 -16 8q-24 32 -24 73q0 43 27 76.5t69 41.5q8 2 15 -2.5t9 -13t-3 -15.5t-13 -9q-27 -5 -45 -27.5t-18 -50.5
q0 -27 16 -48q5 -7 3.5 -15.5t-8.5 -13.5q-5 -4 -12 -4zM841 79h-676q-9 0 -15 6t-6 15v60q0 25 18 43t43 18q41 0 92 19.5t88.5 53t37.5 68.5v20q0 26 -7 39t-42 48q-71 61 -71 155q0 83 58.5 142t141.5 59t141 -59t58 -142q0 -94 -70 -154q-35 -36 -42 -48t-7 -34v-27
q0 -34 37.5 -67.5t88.5 -53t92 -19.5q25 0 42.5 -18t17.5 -43v-60q0 -9 -6 -15t-14 -6zM185 120h635v40q0 8 -5.5 14t-13.5 6q-36 0 -80.5 13.5t-82.5 36.5q-96 58 -96 132v26q0 32 10.5 51t50.5 60q1 1 2 1q56 48 56 124q0 66 -46.5 113t-112 47t-112 -47t-46.5 -113
q0 -76 57 -124q1 0 2 -1q40 -41 51 -61q10 -20 10 -56v-20q0 -74 -97 -132q-38 -23 -82 -36.5t-80 -13.5q-8 0 -14 -6t-6 -14v-40z" />
    <glyph glyph-name="uniE66C" unicode="&#xe66c;" 
d="M832 279l-57 -101h41v-30h-51v-23h51v-30h-51v-42h-45v42h-52v30h52v23h-52v30h42l-56 101h48q33 -70 42 -92h1q1 2 3 8q3 8 20 45l18 39h46zM741.5 -48q-89.5 0 -152.5 64.5t-63 155.5t63 155.5t152.5 64.5t152.5 -64.5t63 -155.5t-63 -155.5t-152.5 -64.5zM741.5 370
q-80.5 0 -137.5 -58t-57 -140t57 -140t137.5 -58t137.5 58t57 140t-57 140t-137.5 58zM198 660h410v-63h-410v63zM198 497h293v-64h-293v64zM198 334h176v-65h-176v65zM505 34h-373v753h615v-314q21 0 44 -3v331q0 11 -8.5 19.5t-20.5 8.5h-645q-12 0 -20.5 -8.5t-8.5 -19.5
v-780q0 -12 8.5 -20t20.5 -8h426q-22 19 -38 41z" />
    <glyph glyph-name="uniE66D" unicode="&#xe66d;" 
d="M448 192l-133 -133v107q0 47 15.5 85.5t40.5 61.5t55 39.5t60 24t55 11.5t41 4h15v47q-56 0 -103 -9t-79.5 -25t-58 -36.5t-40.5 -43t-25.5 -45.5t-14.5 -43.5t-6 -36t-2 -25.5v-9v-107l-132 133l-33 -34l189 -189l189 189zM512 811q-91 0 -174 -35.5t-143 -95.5
t-95.5 -143t-35.5 -174q0 -26 4 -57l44 41q0 2 -0.5 7.5t-0.5 8.5q0 109 53.5 201t146 146t201.5 54t201.5 -54t146 -146t53.5 -201t-53.5 -201.5t-146 -146t-201.5 -53.5l-21 1l-47 -43q37 -6 68 -6q91 0 174 35.5t143 95.5t95.5 143t35.5 174.5t-35.5 174.5t-95.5 143
t-143 95.5t-174 35.5z" />
    <glyph glyph-name="uniE66E" unicode="&#xe66e;" 
d="M314 419l121 -235q4 10 12 27.5t34.5 70.5t56 103.5t75.5 117.5t93.5 122.5t110.5 109t126 86.5q-2 -24 -8 -80.5t-7.5 -86.5t5.5 -77t25 -90q-48 -10 -123 -72.5t-148 -145t-137.5 -169.5t-99.5 -151q-95 118 -200 204t-186 115z" />
    <glyph glyph-name="uniE66F" unicode="&#xe66f;" 
d="M574 532l132 132v-106q0 -48 -15.5 -85.5t-40 -60.5t-54.5 -39.5t-60 -24t-55 -11.5t-41 -5h-15v-47q71 0 128 15.5t89.5 39t58 53t33.5 58t15 53t4 39t0 15.5v106l132 -132l33 34l-188 188l-189 -188zM574 532zM510 -85q91 0 174 35.5t142.5 95t95 142.5t35.5 174
q0 25 -4 56l-44 -41q0 -1 0.5 -6.5t0.5 -8.5q0 -109 -53.5 -201t-145.5 -145.5t-200.5 -53.5t-201 53.5t-146 145.5t-53.5 200.5t53.5 201t146 145.5t200.5 53l21 -1l47 43q-37 6 -68 6q-91 0 -173.5 -35.5t-142.5 -95.5t-95.5 -142.5t-35.5 -173.5t35.5 -174t95.5 -142.5
t142.5 -95t173.5 -35.5zM510 -85z" />
    <glyph glyph-name="uniE670" unicode="&#xe670;" 
d="M68 384q0 -90 35 -172.5t94.5 -142t142 -94.5t172.5 -35t172.5 35t142 94.5t94.5 142t35 172.5t-35 172.5t-94.5 142t-142 94.5t-172.5 35t-172.5 -35t-142 -94.5t-94.5 -142t-35 -172.5z" />
    <glyph glyph-name="uniE671" unicode="&#xe671;" 
d="M917 831h-812q-17 0 -29 -12t-12 -29v-812q0 -17 12 -29t29 -12h812q17 0 29 12t12 29v812q0 17 -12 29t-29 12zM789 343h-236v-236q0 -17 -12.5 -29.5t-29.5 -12.5t-29 12.5t-12 29.5v236h-237q-17 0 -29 12.5t-12 29.5t12 29t29 12h237v237q0 17 12 29t29 12t29.5 -12
t12.5 -29v-237h236q17 0 29.5 -12t12.5 -29t-12.5 -29.5t-29.5 -12.5z" />
    <glyph glyph-name="uniE672" unicode="&#xe672;" 
d="M918 17h-788q-11 0 -19 -8t-8 -19t8 -19t19 -8h788q11 0 19 8t8 19t-8 19t-19 8zM130 212h394q11 0 18.5 7.5t7.5 19t-7.5 19t-18.5 7.5h-394q-11 0 -19 -7.5t-8 -19t8 -19t19 -7.5zM767 516q-11 8 -17 8q-1 0 -2 -1q-4 -6 -4 -18v-235q0 -12 4 -18q1 -1 2 -1q6 0 17 8
l134 102q16 12 16 26.5t-16 26.5zM130 510h394q11 0 18.5 7.5t7.5 19t-7.5 19t-18.5 7.5h-394q-11 0 -19 -7.5t-8 -19t8 -19t19 -7.5zM130 758h788q11 0 19 8t8 19t-8 19t-19 8h-788q-11 0 -19 -8t-8 -19t8 -19t19 -8z" />
    <glyph glyph-name="uniE673" unicode="&#xe673;" 
d="M512 -66q-90 0 -172 36t-141 96t-94 143.5t-35 174.5t35 174.5t94 143.5t141 96t172 36t171.5 -36t141 -96t94.5 -143.5t35 -174.5t-35 -174.5t-94.5 -143.5t-141 -96t-171.5 -36zM512 786q-107 0 -198.5 -54t-144.5 -146.5t-53 -201.5t53 -201.5t144.5 -146.5t198.5 -54
t198 54t144 146.5t53 201.5t-53 201.5t-144 146.5t-198 54zM754 178h-469q-14 0 -23.5 10t-9.5 24v341q0 15 9.5 25t23.5 10h469q14 0 24 -10t10 -25v-341q0 -14 -10 -24t-24 -10zM717 515q-5 5 -12 5t-12 -5l-58 -58l-82 -83q-15 -14 -34 -14q-18 0 -33 12v-1l-110 112l1 1
l-31 31q-5 5 -11.5 5t-11.5 -5t-5 -12t5 -12l106 -108l-106 -108q-5 -5 -5 -12t5 -12t11.5 -5t11.5 5l106 107l28 -28l4 -4l2 -2q14 -11 32 -11q21 0 35 15v-1l33 32l106 -108q5 -5 12 -5t12 5t5 12t-5 12l-107 108l108 108q5 5 5 12t-5 12z" />
    <glyph glyph-name="uniE674" unicode="&#xe674;" 
d="M749 372v31h-221v205h-31v-205h-221v-31h221v-206h31v206h221zM489 801l-3 31q-99 -9 -186 -58l15 -26q81 45 174 53zM285 734l-18 25q-81 -57 -132 -143l26 -15q48 79 124 133zM142 573l-28 13q-42 -90 -43 -189l31 -1q1 93 40 177zM99 363l-31 -2q9 -100 57 -186l27 15
q-45 81 -53 173zM166 159l-25 -17q57 -82 143 -132l15 26q-79 47 -133 123zM314 -11q90 -42 189 -43l1 30q-93 1 -177 41zM537 -27l2 -30q100 8 186 57l-15 27q-81 -46 -173 -54zM740 41l18 -25q82 57 132 142l-26 16q-47 -80 -124 -133zM883 201l28 -13q42 90 43 190h-30
q-1 -93 -41 -177zM927 411l30 3q-8 99 -57 186l-27 -15q46 -81 54 -174zM859 615l25 18q-57 81 -142 132l-16 -26q80 -48 133 -124zM712 786q-90 42 -190 43v-31q93 -1 177 -40z" />
    <glyph glyph-name="uniE675" unicode="&#xe675;" 
d="M512 -47q-9 0 -15.5 6.5t-6.5 15.5v819q0 9 6.5 15t15.5 6t15.5 -6t6.5 -15v-819q0 -9 -6.5 -15.5t-15.5 -6.5zM921 362h-818q-9 0 -15.5 6.5t-6.5 15.5t6.5 15.5t15.5 6.5h818q9 0 15.5 -6.5t6.5 -15.5t-6.5 -15.5t-15.5 -6.5z" />
    <glyph glyph-name="uniE676" unicode="&#xe676;" 
d="M921 347h-818q-15 0 -26 11t-11 26t11 26t26 11h818q16 0 26.5 -11t10.5 -26t-10.5 -26t-26.5 -11zM921 347z" />
    <glyph glyph-name="uniE677" unicode="&#xe677;" 
d="M765 256v1h1zM739 270v0v0zM653 -27l285 806v1v1q1 3 1 5v4v1q-1 2 -1 4v1h-1q0 2 -1 3l-1 1l-1 3q-1 1 -2 1.5t-2 1.5t-2 1l-1 1q-2 1 -3 2h-1v0q-2 1 -4 1h-1h-4h-1h-4v-1h-1h-1l-806 -286q-9 -3 -13.5 -12.5t-1.5 -18.5q4 -9 12 -13l327 -165l20 -19l164 -326
q5 -9 13 -12q10 -3 19 1t12 14zM451 356l-281 141l653 232zM857 695l-230 -653l-141 281z" />
    <glyph glyph-name="uniE678" unicode="&#xe678;" horiz-adv-x="1025" 
d="M939 555l-304 -303l-221 -83l83 221l304 304q23 23 55.5 23t55.5 -23l27 -28q23 -23 23 -55.5t-23 -55.5zM481 236l133 50l7 7l-83 83l-7 -7zM566 404l83 -83l207 207l-83 83zM912 639l-28 28q-11 11 -27.5 11t-27.5 -11l-28 -28l83 -83l28 28q11 11 11 27t-11 28z
M199 149v39h192l-14 -39h-178zM421 267h-222v39h237zM199 541h196v-40h-196v40zM395 384h-196v39h196v-39zM629 188v-39h-190l105 39h85zM532 762v-143q0 -16 11 -27.5t28 -11.5h60l-39 -39h-21q-33 0 -56 22.5t-23 55.5v176h-352q-16 0 -27.5 -11.5t-11.5 -27.5v-744
q0 -16 11.5 -27.5t27.5 -11.5h548q16 0 27.5 11.5t11.5 27.5v276l39 39v-315q0 -32 -22.5 -55t-55.5 -23h-548q-32 0 -55 23t-23 55v744q0 32 23 55t55 23h379l177 -190l-28 -27zM532 762z" />
    <glyph glyph-name="uniE679" unicode="&#xe679;" 
d="M461 557v-106v-34h34q176 -2 276 -81t125 -237q-26 31 -56.5 55t-57 39.5t-60 26.5t-57.5 16.5t-59.5 8t-55 3t-55.5 0.5h-34v-34v-105l-316 224zM495 623l-409 -290l409 -290v171q43 0 70.5 -1t66.5 -6t67 -14.5t63 -26.5t63 -42t58 -62.5t57 -85.5q0 39 -2.5 72.5
t-12.5 84t-27.5 91t-51 84.5t-79 73.5t-115.5 49t-157 20.5v172z" />
    <glyph glyph-name="uniE67A" unicode="&#xe67a;" 
d="M480 770q-114 0 -210 -56t-152 -152.5t-56 -210t56 -209.5t152 -152t209.5 -56t210 56t152.5 152t56 210h-418v418zM828 288q-23 -125 -121 -207.5t-227 -82.5q-96 0 -177.5 47.5t-129 129t-47.5 177.5q0 129 82.5 227t207.5 121v-412h412zM544 834v-418h418
q0 114 -56 210t-152 152t-210 56zM608 764q108 -20 186 -98t98 -186h-284v284z" />
    <glyph glyph-name="uniE67B" unicode="&#xe67b;" 
d="M474 526q-75 -36 -108 -112q-5 -11 -0.5 -21.5t15.5 -15.5q5 -2 11 -2q18 0 26 17q24 57 81 84q10 5 14 16t-1 21.5t-16 14t-22 -1.5zM763 354q-12 0 -20 -8t-8 -20q0 -68 -48.5 -116.5t-116.5 -48.5q-12 0 -20.5 -8.5t-8.5 -20t8.5 -19.5t20.5 -8q91 0 156 64.5
t65 156.5q0 12 -8 20t-20 8zM954 -17l-128 127q33 40 53 87q27 62 27 130.5t-27 131.5q-26 61 -72.5 107.5t-107.5 72.5q-62 26 -130.5 26t-131.5 -26q-61 -26 -107.5 -72.5t-72.5 -107.5q-26 -63 -26 -131.5t26 -130.5q26 -61 72.5 -107.5t107.5 -72.5q63 -27 131.5 -27
t130.5 27q48 20 87 54l128 -128q8 -8 20 -8t20 8t8 20t-8 20zM568 47q-116 0 -198.5 82.5t-82.5 198.5t82.5 198.5t198.5 82.5t198.5 -82.5t82.5 -198.5t-82.5 -198.5t-198.5 -82.5zM342 -10h-157q-28 0 -47.5 19.5t-19.5 47.5v654q0 28 19.5 47.5t47.5 19.5h598
q27 0 46.5 -19.5t19.5 -47.5v-82q0 -11 8.5 -19.5t20 -8.5t20 8.5t8.5 19.5v82q0 51 -36 87t-87 36h-598q-51 0 -87 -36t-36 -87v-654q0 -51 36 -87t87 -36h157q12 0 20 8t8 20t-8 20t-20 8z" />
    <glyph glyph-name="uniE67C" unicode="&#xe67c;" 
d="M511.5 834q-91.5 0 -174.5 -35.5t-143.5 -96t-96 -143.5t-35.5 -174.5t35.5 -174.5t96 -143.5t143.5 -96t174.5 -35.5t174.5 35.5t143.5 96t96 143.5t35.5 174.5t-35.5 174.5t-96 143.5t-143.5 96t-174.5 35.5zM511.5 -20q-109.5 0 -203 54t-147.5 147.5t-54 203t54 203
t147.5 147.5t203 54t203 -54t147.5 -147.5t54 -203t-54 -203t-147.5 -147.5t-203 -54zM565 496q-64 0 -91 2q5 -24 5 -56v-155q-3 -39 -8 -51h62q-3 31 -3 71v147h160v-157q0 -32 -5 -64h61q-5 27 -5 67v125q0 32 5 66q3 8 3 10q-37 -5 -64 -5h-76q24 86 24 84q108 0 140 -5
v51q-2 0 -86 -2h-157q-39 0 -56 5v-57q22 8 61 8h42v-3q-3 -22 -12 -81zM773 626zM619 204q56 -40 122 -108l42 41q-39 37 -127 104zM638 403q3 5 3 7q-5 10 -62 5q3 -143 -32 -189q-29 -52 -152 -89q32 -19 47 -41q118 51 150 105q34 42 39 172q2 20 7 30zM439 336
q20 74 32 108q0 2 -5 3h-19q-32 -3 -64 -3l-22 30q86 123 93 145q3 5 -2 5q-13 -3 -116 -3q-81 0 -103 3v-47h22q28 3 52 3h76l-47 -79q-5 7 -39 42l-39 -22q22 -18 56 -59q10 -13 15 -18q-91 0 -118 3v-44h22q32 2 76 2v-223q3 -25 -59 -15q10 -20 15 -52q101 10 93 59v231
h57l-25 -64z" />
    <glyph glyph-name="uniE67D" unicode="&#xe67d;" 
d="M673 184v411q0 9 10 14l180 81v-612l-180 92q-10 5 -10 14zM926 763q-11 29 -37.5 48t-60.5 19h-509q-44 0 -74.5 -30.5t-30.5 -74.5v-165q0 -16 10 -25.5t25.5 -9.5t25 9.5t9.5 25.5v165q0 15 10 25t25 10h509q7 0 14 -4l-187 -84q-23 -11 -37.5 -32t-14.5 -45v-411
q0 -27 14.5 -48t37.5 -29l183 -95q0 -4 -10 -4h-509q-15 0 -25 10t-10 25v169q0 16 -9.5 25.5t-25 9.5t-25.5 -9.5t-10 -25.5v-169q0 -44 30.5 -74t74.5 -30h509q34 0 60.5 18.5t37.5 47.5q7 14 7 21v716q0 7 -7 21zM448 425h-347q-15 0 -25 -9.5t-10 -25.5t10 -25.5
t25 -9.5h347l-77 -77q-11 -10 -11 -24t10.5 -24.5t24.5 -10.5t25 10l136 137q10 10 10 24t-10 25l-136 136q-11 10 -25 10t-24.5 -10.5t-10.5 -24t11 -24.5z" />
    <glyph glyph-name="uniE67E" unicode="&#xe67e;" 
d="M339 184q0 -9 -10 -14l-180 -92v612l180 -81q10 -5 10 -14v-411zM86 763q-7 -14 -7 -21v-716q0 -7 7 -21q10 -29 37 -48t61 -19h508q45 0 75 30.5t30 74.5v169q0 16 -9.5 25.5t-25 9.5t-25.5 -9.5t-10 -25.5v-169q0 -15 -9.5 -25t-25.5 -10h-508q-11 0 -11 4l184 95
q23 8 37.5 29t14.5 48v411q0 23 -14.5 44.5t-37.5 32.5l-187 84q7 4 14 4h508q16 0 25.5 -10t9.5 -25v-165q0 -16 10 -25.5t25.5 -9.5t25 9.5t9.5 25.5v165q0 44 -30 74t-75 30h-508q-34 0 -61 -18.5t-37 -47.5zM564 355h346q16 0 25.5 9.5t9.5 25.5t-9.5 25.5t-25.5 9.5
h-346l77 77q10 11 10 24.5t-10.5 24t-24 10.5t-24.5 -10l-136 -136q-11 -11 -11 -25t11 -24l136 -137q10 -10 24.5 -10t24.5 10.5t10 24.5t-10 24zM339 184q0 -9 -10 -14l-180 -92v612l180 -81q10 -5 10 -14v-411zM86 763q-7 -14 -7 -21v-716q0 -7 7 -21q10 -29 37 -48
t61 -19h508q45 0 75 30.5t30 74.5v169q0 16 -9.5 25.5t-25 9.5t-25.5 -9.5t-10 -25.5v-169q0 -15 -9.5 -25t-25.5 -10h-508q-11 0 -11 4l184 95q23 8 37.5 29t14.5 48v411q0 23 -14.5 44.5t-37.5 32.5l-187 84q7 4 14 4h508q16 0 25.5 -10t9.5 -25v-165q0 -16 10 -25.5
t25.5 -9.5t25 9.5t9.5 25.5v165q0 44 -30 74t-75 30h-508q-34 0 -61 -18.5t-37 -47.5zM564 355h346q16 0 25.5 9.5t9.5 25.5t-9.5 25.5t-25.5 9.5h-346l77 77q10 11 10 24.5t-10.5 24t-24 10.5t-24.5 -10l-136 -136q-11 -11 -11 -25t11 -24l136 -137q10 -10 24.5 -10
t24.5 10.5t10 24.5t-10 24z" />
    <glyph glyph-name="uniE67F" unicode="&#xe67f;" 
d="M512 553q-70 0 -119.5 -49.5t-49.5 -119.5t49.5 -119.5t119.5 -49.5t119.5 49.5t49.5 119.5t-49.5 119.5t-119.5 49.5zM512 272q-47 0 -79.5 32.5t-32.5 79.5t32.5 79.5t79.5 32.5t79.5 -32.5t32.5 -79.5t-32.5 -79.5t-79.5 -32.5zM906 468h-67q-12 46 -36 87l47 48
q17 16 17 39.5t-17 39.5l-40 40q-16 17 -39.5 17t-39.5 -17l-48 -47q-41 24 -87 36v67q0 23 -16 39.5t-40 16.5h-56q-24 0 -40 -16.5t-16 -39.5v-67q-46 -12 -87 -36l-48 47q-16 17 -39.5 17t-39.5 -17l-40 -40q-17 -16 -17 -39.5t17 -39.5l47 -48q-24 -41 -36 -87h-67
q-23 0 -39.5 -16t-16.5 -40v-56q0 -24 16.5 -40t39.5 -16h67q12 -46 36 -87l-47 -48q-17 -16 -17 -39.5t17 -39.5l40 -40q16 -17 39.5 -17t39.5 17l48 47q41 -24 87 -36v-67q0 -23 16 -39.5t40 -16.5h56q24 0 40 16.5t16 39.5v67q46 12 87 36l48 -47q16 -17 39.5 -17
t39.5 17l40 40q17 16 17 39.5t-17 39.5l-47 48q24 41 36 87h67q23 0 39.5 16t16.5 40v56q0 24 -16.5 40t-39.5 16zM906 356h-114q-9 -84 -62 -150l80 -81l-39 -39l-81 80q-66 -53 -150 -62v-114h-56v114q-84 9 -150 62l-81 -80l-39 39l80 81q-53 66 -62 150h-114v56h114
q9 84 62 150l-80 81l39 39l81 -80q66 53 150 62v114h56v-114q84 -9 150 -62l81 80l39 -39l-80 -81q53 -66 62 -150h114v-56z" />
    <glyph glyph-name="uniE680" unicode="&#xe680;" 
d="M712 381l209 138l-589 99l100 -580l140 206l250 -272l140 138zM815 70l-257 275l-91 -132l-60 329l344 -58l-129 -89l245 -277zM118 778h702v-94h56v150h-814v-900h296v56h-240v788z" />
    <glyph glyph-name="uniE681" unicode="&#xe681;" horiz-adv-x="1170" 
d="M1048 59h-318l340 337q17 17 17 39t-17 39l-350 343q-17 17 -39.5 17t-37.5 -17l-549 -539q-17 -17 -17 -40t17 -37l141 -142h-131q-17 0 -29.5 -12.5t-12.5 -29.5v-44q0 -15 12.5 -27t29.5 -12h944q17 0 29.5 12.5t12.5 29.5v45q0 14 -13 26t-29 12zM598 -2h-231
l-238 238q-4 5 0 10l546 539q5 5 10 0l350 -347q5 -5 0 -9l-372 -370zM682 724q-12 0 -20.5 -6.5t-8.5 -15.5l-51 -392l-392 -45q-12 0 -18.5 -9.5t-4.5 -19.5q0 -9 8 -16t18 -7h3l414 45q10 0 16.5 6.5t6.5 16.5l54 414q0 13 -6.5 21t-18.5 8z" />
    <glyph glyph-name="uniE682" unicode="&#xe682;" 
d="M509.5 449q73.5 0 126 55t52.5 133t-52.5 133t-126 55t-126 -55t-52.5 -133t52.5 -133t126 -55zM509.5 731q36.5 0 63 -27.5t26.5 -66.5t-26.5 -66.5t-63 -27.5t-63 27.5t-26.5 66.5t26.5 66.5t63 27.5zM241.5 308q-73.5 0 -126 -55.5t-52.5 -133t52.5 -132.5t126 -55
t126 55t52.5 132.5t-52.5 133t-126 55.5zM241.5 26q-36.5 0 -63 27.5t-26.5 66.5t26.5 66.5t63 27.5t63 -27.5t26.5 -66.5t-26.5 -66.5t-63 -27.5zM509.5 397q-33.5 0 -59 -27t-25.5 -62t25.5 -62t59 -27t59.5 27t26 62t-26 62t-59.5 27zM777.5 308q-73.5 0 -126 -55.5
t-52.5 -133t52.5 -132.5t126 -55t126 55t52.5 132.5t-52.5 133t-126 55.5zM777.5 26q-36.5 0 -63 27.5t-26.5 66.5t26.5 66.5t63 27.5t63 -27.5t26.5 -66.5t-26.5 -66.5t-63 -27.5z" />
    <glyph glyph-name="uniE683" unicode="&#xe683;" 
d="M575 171h-372q-5 0 -9 -3.5t-4 -8.5t4 -9t9 -4h372q5 0 9 4t4 9t-4 8.5t-9 3.5zM575 274h-372q-5 0 -9 -3.5t-4 -8.5t4 -9t9 -4h372q5 0 9 4t4 9t-4 8.5t-9 3.5zM575 378h-372q-5 0 -9 -4t-4 -9t4 -8.5t9 -3.5h372q5 0 9 3.5t4 8.5t-4 9t-9 4zM203 454h170q5 0 8.5 3.5
t3.5 8.5t-3.5 8.5t-8.5 3.5h-170q-5 0 -9 -3.5t-4 -8.5t4 -8.5t9 -3.5zM586 823q-9 9 -21 9h-470q-13 0 -22 -9.5t-9 -21.5v-833q0 -13 9 -22.5t22 -9.5h588q13 0 22 9.5t9 22.5v713q0 14 -9 23zM126 -1v770h407v-101q0 -8 5 -13.5t13 -5.5h102v-650h-527zM941 792h-139
q-7 0 -12.5 -5.5t-5.5 -13.5v-641q0 -4 2 -8l69 -166q5 -11 17 -11t17 11l69 166q2 4 2 8v641q0 8 -5.5 13.5t-13.5 5.5zM923 135l-27 -64h-48l-27 64v619h44v-588q0 -6 4 -9.5t9 -3.5t8.5 3.5t3.5 9.5v588h33v-619zM923 135z" />
    <glyph glyph-name="uniE684" unicode="&#xe684;" 
d="M99 196h1h185q14 0 24 -10.5t10 -24.5v-1v-274q0 -14 -10 -24t-24 -10h-1h-185q-15 0 -25 10t-10 24v2v273q0 14 10 24.5t25 10.5zM250 127h-117v-206h117v206zM419 748h1h185q15 0 25 -10t10 -25v-1v-826q0 -14 -10.5 -24t-24.5 -10h-1h-185q-14 0 -24.5 10t-10.5 24v2
v825q0 15 10 25t25 10zM571 679h-118v-758h118v758zM739 564h1h185q15 0 25 -10t10 -25v-1v-642q0 -14 -10 -24t-25 -10h-1h-185q-14 0 -24.5 10t-10.5 24v2v641q0 15 10.5 25t24.5 10zM891 495h-118v-574h118v574z" />
    <glyph glyph-name="uniE685" unicode="&#xe685;" 
d="M512 819q-180 0 -307.5 -127.5t-127.5 -307.5t127.5 -307.5t307.5 -127.5t307.5 127.5t127.5 307.5t-127.5 307.5t-307.5 127.5zM509 80q-26 0 -45 18t-19 44.5t19 44.5t45.5 18t45 -18t18.5 -44.5t-18.5 -44.5t-45.5 -18zM682 436q-19 -30 -81 -81q-32 -27 -39.5 -43
t-6.5 -58h-92v12v8v4q0 45 14.5 73.5t58.5 64.5q45 36 53 47q13 17 13 38q0 30 -23.5 50.5t-62.5 20.5t-65 -21q-12 -11 -22 -31t-13 -36q-2 -9 -25 -13.5t-45.5 1.5t-21.5 24q1 62 54 108q51 45 133 45q87 0 138 -45t51 -105q0 -34 -18 -63z" />
    <glyph glyph-name="uniE686" unicode="&#xe686;" 
d="M441 746q62 0 118.5 -46.5t76.5 -115.5q19 -61 -2.5 -119.5t-78.5 -104.5q-103 -80 -217 -13q-69 41 -93 112t3.5 143t98.5 115q39 24 94 29zM356 -65q-79 9 -228 27h-3q-48 10 -55.5 22t7.5 58q35 105 41 124q35 97 140 102q49 3 233 1q20 0 24.5 -8t-4.5 -26
q-5 -10 -10 -18q-69 -112 -39 -235q7 -26 0.5 -34t-33.5 -8h-54h-6h-7h-5q0 -1 -1 -5zM499 125q37 10 40 10q30 7 11 31q-2 2 -27 31q29 39 33 44q5 7 33 45q37 -27 39 -29q30 -21 44 12q1 2 14 41q66 0 78 -1q4 0 9 -6t7 -12q15 -41 24.5 -44t44.5 24q0 1 20 15
q4 -6 67 -91q-25 -20 -26 -21q-17 -17 -14.5 -25.5t24.5 -13.5q2 -1 37 -10v-88q-39 -11 -42 -12q-36 -14 -8 -39q2 -2 25 -21q-13 -13 -43 -41.5t-46 -44.5q-24 21 -26 23q-14 12 -25 7.5t-14 -22.5q-1 -3 -3 -18q0 -1 -3 -17h-88q-7 37 -8 39q-8 30 -34 15q-4 -2 -51 -30
q-56 71 -69 88q25 22 26 23q27 26 -9 38q-2 1 -40 12v88zM842 83q0 48 -34 81.5t-81.5 33t-81 -34.5t-33 -82t34.5 -81.5t82 -33t81 34t32 82.5z" />
    <glyph glyph-name="uniE687" unicode="&#xe687;" 
d="M762 -158v358q0 14 -10.5 24.5t-25 10.5t-25 -10t-10.5 -25v-358h-429v125h-18q-37 0 -63.5 26.5t-26.5 63.5v286h2q7 31 31.5 51t56.5 20h315l-267 -441q4 -1 12 -1.5t33 1t49 6t57.5 17.5t62.5 32.5t60 54t54 78.5t40 109.5t23 143.5h97q37 0 63.5 -26t26.5 -63v-483
h-108zM315 128v107h-53v-107h53zM509 453q-59 0 -100.5 41.5t-41.5 100t41.5 100t100.5 41.5t100.5 -41.5t41.5 -100t-41.5 -100t-100.5 -41.5z" />
    <glyph glyph-name="uniE688" unicode="&#xe688;" 
d="M928 750h-830q-13 0 -22 -9t-9 -22v-540q0 -13 9 -22t22 -9h193l-38 41h-145v520h810v-520h-159q13 -5 34 -10.5t37.5 -12.5t29.5 -18h68q13 0 22 9t9 22v540q0 13 -9 22t-22 9zM724 157q-6 2 -10 3.5t-7 2.5q-9 3 -18 5q-2 1 -4 1h-5q-3 0 -5 -1q-26 -14 -63 -14t-63 14
q-2 1 -4 1h-4h-2q-9 -2 -20 -5q-3 -1 -8 -3q-4 -1 -9 -3q-12 -5 -23 -10q-17 -8 -29 -15l-93 148q-9 13 -23.5 6.5t-10.5 -21.5l15 -56l17 -62l25 -96q1 -2 3 -5v-4q0 -10 9 -10h440q10 0 10 10v34q0 4 -3 7q-50 49 -115 73zM504 317q0 -8 5 -13.5t12 -5.5h1q3 -38 29 -68.5
t61 -30.5t61.5 30.5t28.5 68.5h1q7 0 12.5 5.5t5.5 13.5q0 12 -11 17q6 17 6 35q0 46 -30.5 78t-73.5 32t-73 -32t-30 -78q0 -18 5 -35q-10 -5 -10 -17zM504 317z" />
    <glyph glyph-name="uniE689" unicode="&#xe689;" 
d="M106 181h151v-191h-151v191zM337 377h156v-387h-156v387zM569 303h154v-313h-154v313zM800 492h156v-502h-156v502zM64 371l360 331l207 -203l196 227l-71 75h200v-194l-70 72l-255 -308l-209 215l-308 -287z" />
    <glyph glyph-name="uniE68A" unicode="&#xe68a;" 
d="M530 783q-45 0 -98 -14.5t-95 -36.5l-2 2l-51 86q-5 6 -15 -5q-5 -4 -41.5 -67.5t-71 -124.5t-34.5 -62t-1 -3t-2.5 -7t-1 -8.5t3 -6.5t8.5 -3h295h3q2 0 6 1.5t6 3.5t2 7.5t-4 13.5q-8 15 -49 84q31 16 71 27t71 11q113 0 193 -80t80 -193.5t-80 -193.5t-193 -80
q-89 0 -160 52t-99 134h-109q34 -126 136.5 -207t231.5 -81q102 0 188.5 50.5t136.5 137t50 188.5t-50 188.5t-136.5 136.5t-188.5 50z" />
    <glyph glyph-name="uniE68B" unicode="&#xe68b;" 
d="M921 400h-80q-1 3 -12.5 31.5t-19.5 42.5l57 55q13 13 13 31.5t-13 31.5l-65 64q-13 13 -32 13t-32 -13l-53 -56q-14 8 -42.5 19t-31.5 12v80q0 18 -16 31.5t-36 13.5h-90q-20 0 -36 -13.5t-16 -31.5v-80q-3 -1 -31.5 -12t-42.5 -20l-55 57q-13 13 -31.5 13t-31.5 -13
l-64 -64q-13 -14 -13 -32.5t13 -32.5l57 -53q-8 -14 -19.5 -42.5t-12.5 -31.5h-80q-18 0 -31.5 -16t-13.5 -35v-91q0 -20 13.5 -36t31.5 -16h80q1 -3 12.5 -31.5t19.5 -42.5l-57 -54q-13 -14 -13 -32.5t13 -31.5l65 -64q13 -13 32 -13t32 13l53 57q14 -8 42.5 -19.5
t31.5 -12.5v-80q0 -18 16 -31.5t36 -13.5h90q20 0 36 13.5t16 31.5v80q3 1 31.5 12.5t42.5 19.5l55 -56q13 -14 31.5 -14t31.5 14l64 64q13 13 13 32t-13 32l-57 53q8 14 19.5 42.5t12.5 31.5h80q18 0 31.5 16t13.5 36v91q0 19 -13.5 35t-31.5 16zM513 99q-85 0 -144.5 60
t-59.5 144.5t59.5 144.5t144.5 60t144.5 -60t59.5 -144.5t-59.5 -144.5t-144.5 -60zM513 99z" />
    <glyph glyph-name="uniE68C" unicode="&#xe68c;" 
d="M418 149v141h-142q-58 0 -99.5 -41t-41.5 -99.5t41.5 -100t100 -41.5t100 41.5t41.5 99.5zM488 149q0 -88 -62 -150t-149.5 -62t-149.5 62t-62 150t62 150t149 62h212v-212zM606 149v141h141q59 0 100 -41t41 -99.5t-41 -100t-99.5 -41.5t-100 41.5t-41.5 99.5zM535 149
q0 -88 62 -150t150 -62t150 62t62 150t-62 150t-150 62h-212v-212zM418 620v-141h-142q-58 0 -99.5 41t-41.5 99.5t41.5 100t100 41.5t100 -41.5t41.5 -99.5zM488 620q0 87 -62 149.5t-149.5 62.5t-149.5 -62.5t-62 -150t62 -149.5t149 -62h212v212zM606 620v-141h141
q59 0 100 41t41 99.5t-41 100t-99.5 41.5t-100 -41.5t-41.5 -99.5zM535 620q0 87 62 149.5t150 62.5t150 -62.5t62 -150t-62 -149.5t-150 -62h-212v212z" />
    <glyph glyph-name="uniE68D" unicode="&#xe68d;" 
d="M512 -62q-91 0 -173.5 35.5t-142 95t-95 142t-35.5 173.5q0 141 79.5 254t207.5 162v-69q-101 -46 -162 -139.5t-61 -207.5q0 -104 51 -192t139 -139t192 -51t192 51t139 139t51 192q0 114 -61 207.5t-162 139.5v69q128 -49 207.5 -162t79.5 -254q0 -91 -35.5 -173.5
t-95 -142t-142 -95t-173.5 -35.5zM480 830h64v-319h-64v319zM480 830z" />
    <glyph glyph-name="uniE68E" unicode="&#xe68e;" 
d="M512 588q-84 0 -144 -60t-60 -144t60 -144t144 -60t144 60t60 144t-60 144t-144 60zM512.5 238q-60.5 0 -103 43t-42.5 103t42.5 103t103 43t103 -43t42.5 -103t-42.5 -103t-103 -43zM943 405l-5 11t-11 24.5t-18.5 34t-27 41t-35.5 43.5t-44.5 43.5t-55.5 39.5t-66 32.5
t-77.5 21.5t-90.5 8t-90.5 -8t-77.5 -21.5t-66 -32.5t-55.5 -39.5t-44.5 -43.5t-35.5 -43.5t-27 -41t-18.5 -34t-11 -24.5l-5 -11q-12 -21 0 -42l5 -11q5 -11 11 -24.5t18.5 -34t27 -41t35.5 -43.5t44.5 -43.5t55.5 -39.5t66 -32.5t77.5 -21.5t90.5 -8t90.5 8t77.5 21.5
t66 32.5t55.5 39.5t44.5 43.5t35.5 43.5t27 41t18.5 34t11 24.5l5 11q12 21 0 42zM512.5 139q-43.5 0 -83.5 8.5t-69.5 20.5t-58 32t-47 37.5t-38 42t-29.5 39.5t-24 37t-18 28q4 6 18 28t23.5 37t29.5 39.5t38.5 42t46.5 37.5t58 32t69.5 20.5t83 8.5t83.5 -8.5t69.5 -20.5
t58 -32t47 -37.5t38 -42t29.5 -39.5t24 -37t18 -28q-4 -6 -18 -28t-23.5 -37t-29.5 -39.5t-38.5 -42t-46.5 -37.5t-58 -32t-69.5 -20.5t-83 -8.5z" />
    <glyph glyph-name="uniE68F" unicode="&#xe68f;" 
d="M944 416l-165 -142q-16 -16 -12 -39l38 -227q5 -27 -14 -41q-13 -10 -29 -10q-11 0 -22 6l-208 112q-21 11 -41 0l-200 -112q-26 -14 -50 4q-28 19 -24 41l48 232q4 23 -13 39l-174 137q-21 21 -12 49t39 33l226 39q23 4 33 25l104 219q13 27 43 27t43 -27l100 -219
q11 -21 34 -25l230 -39q29 -5 38.5 -33t-12.5 -49z" />
    <glyph glyph-name="uniE690" unicode="&#xe690;" 
d="M768 -144h-575q-40 0 -68 28t-28 67v639q0 40 28 68t68 28h447q13 0 22.5 -9.5t9.5 -22.5t-9.5 -22.5t-22.5 -9.5h-447q-14 0 -23 -9.5t-9 -22.5v-639q0 -13 9 -22.5t23 -9.5h575q13 0 22 9.5t9 22.5v511q0 14 9.5 23t23 9t22.5 -9t9 -23v-511q0 -39 -28 -67t-67 -28z
M580 367q-13 0 -22.5 9t-9.5 22.5t9 22.5l318 318q9 9 22.5 9t22.5 -9.5t9 -22.5t-9 -23l-318 -317q-9 -9 -22 -9zM448 367h-192q-13 0 -22 9t-9 22.5t9 23t22 9.5h192q13 0 22.5 -9.5t9.5 -23t-9.5 -22.5t-22.5 -9zM640 175h-384q-13 0 -22 9.5t-9 22.5t9 22.5t22 9.5h384
q13 0 22.5 -9.5t9.5 -22.5t-9.5 -22.5t-22.5 -9.5zM640 175z" />
    <glyph glyph-name="uniE691" unicode="&#xe691;" 
d="M512 -154q90 0 172 35t141 94t94 141t35 172t-35 172t-94 141t-141 94t-172 35t-172 -35t-141 -94t-94 -141t-35 -172t35 -172t94 -141t141 -94t172 -35zM512 642q96 0 177.5 -47.5t129 -129t47.5 -177.5t-47.5 -177.5t-129 -129t-177.5 -47.5t-177.5 47.5t-129 129
t-47.5 177.5t47.5 177.5t129 129t177.5 47.5zM543 282l-160 190q-6 7 -5 16.5t8 15.5l31 26q7 6 16.5 5t15.5 -8l192 -228q6 -7 5 -17q1 -10 -5 -17l-192 -228q-6 -7 -15.5 -8t-16.5 5l-31 26q-7 6 -8 15.5t5 16.5zM543 282z" />
    <glyph glyph-name="uniE692" unicode="&#xe692;" 
d="M954 619h1h-884h883zM513 131l-29 28l-97 87l-281 -265h813l-280 265l-97 -89zM64 545v-513l275 256zM961 32v513l-275 -257zM513 207l441 412h-883zM513 207z" />
    <glyph glyph-name="uniE693" unicode="&#xe693;" 
d="M77 485h870v-202h-870v202zM411 819h202v-870h-202v870z" />
    <glyph glyph-name="uniE694" unicode="&#xe694;" 
d="M177 412q-55 57 -55 129t55 130q98 102 224 -29l84 -86l84 86q126 131 224 29q51 -53 54.5 -120t-41.5 -123h70q37 63 30.5 141t-57.5 131q-54 54 -111.5 68.5t-105.5 -5t-91 -63.5l-56 -58l-56 58q-43 44 -91 63.5t-106 5.5t-111 -69q-61 -65 -59 -158t64 -158l359 -375
l25 26v86l-25 -26zM177 412zM960 289l-53 73l-262 -193l-97 130l-72 -53l150 -203l72 54z" />
    <glyph glyph-name="uniE695" unicode="&#xe695;" 
d="M935 -60h-122q-8 0 -14 6t-6 14t6 14t14 6h102v102q0 8 6 14t14 6t14 -6t6 -14v-122q0 -8 -6 -14t-14 -6zM935 183q-8 0 -14 6t-6 14v122q0 9 6 14.5t14 5.5t14 -5.5t6 -14.5v-122q0 -8 -6 -14t-14 -6zM935 427q-8 0 -14 6t-6 14v122q0 8 6 14t14 6t14 -6t6 -14v-122
q0 -8 -6 -14t-14 -6zM935 670q-8 0 -14 6t-6 14v102h-102q-8 0 -14 6t-6 14t6 14t14 6h122q8 0 14 -6t6 -14v-122q0 -8 -6 -14t-14 -6zM692 -60h-122q-9 0 -14.5 6t-5.5 14t5.5 14t14.5 6h122q8 0 14 -6t6 -14t-6 -14t-14 -6zM692 792h-122q-9 0 -14.5 6t-5.5 14t5.5 14
t14.5 6h122q8 0 14 -6t6 -14t-6 -14t-14 -6zM669 427q16 0 28 -12t12 -29t-12 -29t-28 -12h-122v-121q0 -17 -12 -29t-28.5 -12t-28.5 12t-12 29v121h-122q-17 0 -28.5 12t-11.5 29t11.5 29t28.5 12h122v121q0 17 12 29t28.5 12t28.5 -12t12 -29v-121h122zM448 792h-122
q-8 0 -14 6t-6 14t6 14t14 6h122q8 0 14 -6t6 -14t-6 -14t-14 -6zM205 -60h-122q-8 0 -14 6t-6 14v122q0 8 6 14t14 6t14 -6t6 -14v-102h102q8 0 14 -6t6 -14t-6 -14t-14 -6zM205 792h-102v-102q0 -8 -6 -14t-14 -6t-14 6t-6 14v122q0 8 6 14t14 6h122q8 0 14 -6t6 -14
t-6 -14t-14 -6zM83 589q8 0 14 -6t6 -14v-122q0 -8 -6 -14t-14 -6t-14 6t-6 14v122q0 8 6 14t14 6zM83 345q8 0 14 -5.5t6 -14.5v-122q0 -8 -6 -14t-14 -6t-14 6t-6 14v122q0 9 6 14.5t14 5.5zM326 -20h122q8 0 14 -6t6 -14t-6 -14t-14 -6h-122q-8 0 -14 6t-6 14t6 14t14 6z
" />
    <glyph glyph-name="uniE696" unicode="&#xe696;" 
d="M935 72q13 -13 14.5 -31.5t-10.5 -31.5l-43 -48q-13 -13 -33 -12.5t-33 13.5l-174 178q-1 0 -2 1.5t-1 2.5q-94 -63 -207 -63q-101 0 -186.5 49.5t-135.5 135t-50 186.5t50 186.5t135.5 135.5t186.5 50t186.5 -50t135 -135.5t49.5 -186.5q0 -110 -60 -203l1 -1h1z
M446 736q-118 0 -201 -83t-83 -200.5t83 -201t201 -83.5t201 83.5t83 201t-83 200.5t-201 83zM582 561q-52 66 -136 66q-44 0 -81.5 -20t-61.5 -54l-36 25q30 43 77 68t102 25q51 0 95.5 -22t74.5 -60z" />
    <glyph glyph-name="uniE697" unicode="&#xe697;" 
d="M945 245q0 -38 -26.5 -65.5t-65.5 -27.5h-683q-39 0 -66.5 27.5t-27.5 65.5v435q0 39 27.5 66.5t66.5 27.5h683q39 0 65.5 -27.5t26.5 -66.5v-435zM884 680q0 13 -9 22.5t-22 9.5h-683q-13 0 -22.5 -9.5t-9.5 -22.5v-435q0 -13 9.5 -22t22.5 -9h683q13 0 22 9t9 22v435z
M106 370h810v-62h-810v62zM713 -3h-404q-13 0 -22 9t-9 22t9 22t22 9h404q13 0 22 -9t9 -22t-9 -22t-22 -9zM356 152h62v-125h-62v125zM573 152h63v-125h-63v125z" />
    <glyph glyph-name="uniE698" unicode="&#xe698;" 
d="M693 834h-407q-28 0 -47 -18.5t-19 -44.5v-774q0 -26 19 -44.5t47 -18.5h407q28 0 47.5 18.5t19.5 44.5v774q-1 26 -20 44.5t-47 18.5zM480 -41q-14 0 -24 9.5t-10 22.5t10 22t23.5 9t23.5 -9t10 -22t-10 -22.5t-23 -9.5zM722 49h-465v744h465v-744zM722 49z" />
    <glyph glyph-name="uniE699" unicode="&#xe699;" 
d="M839 774h-78v-62q0 -18 -14.5 -30.5t-34.5 -12.5t-34.5 12.5t-14.5 30.5v62h-302v-62q0 -18 -14.5 -30.5t-34.5 -12.5t-34.5 12.5t-14.5 30.5v62h-78q-39 0 -67 -24.5t-28 -58.5v-674q0 -34 28 -58.5t67 -24.5h654q39 0 67 24.5t28 58.5v674q0 34 -28 58.5t-67 24.5z
M872 30q0 -11 -10 -19t-23 -8h-654q-14 0 -23.5 8t-9.5 19v508h720v-508zM313 685q9 0 16 5.5t7 12.5v113q0 7 -6.5 12.5t-16.5 5.5t-17 -5.5t-7 -12.5v-113q0 -7 7 -12.5t17 -5.5zM711 685q10 0 17 5.5t7 12.5v113q0 7 -7 12.5t-16.5 5.5t-16.5 -5.5t-7 -12.5v-113
q0 -7 6.5 -12.5t16.5 -5.5zM728 386l-230 -266q-9 -10 -22 -10t-23 10l-129 149q-9 11 -9 26t9 25.5t22 10.5t23 -11l107 -123l207 240q10 10 23 10t22 -10.5t9 -25.5t-9 -25z" />
    <glyph glyph-name="uniE69A" unicode="&#xe69a;" 
d="M259 352l-114 173h-55v-282h56v180l120 -180h49v282h-56v-173zM453 365h82v56h-82v47h147v57h-203v-282h207v56h-151v66zM878 525l-24 -154l-39 154h-59l-39 -153l-25 153h-56l44 -282h59l48 168l44 -168h59l44 282h-56z" />
    <glyph glyph-name="uniE69B" unicode="&#xe69b;" 
d="M202 244q-3 -32 -11 -42q-11 -17 -23 -29.5t-18 -17.5l-6 -4q49 -2 92 10q16 4 22.5 7t16.5 8.5t28 12.5q-56 22 -101 55zM450.5 674q93.5 0 173.5 -31.5t126.5 -85.5t46.5 -118t-46.5 -118.5t-126.5 -86t-173.5 -31.5t-173.5 31.5t-126.5 86t-46.5 118.5t46.5 118
t126.5 85.5t173.5 31.5zM450 717q-105 0 -194.5 -37.5t-141.5 -101.5t-52 -139.5t52 -139.5t141.5 -101t195 -37t195 37t141.5 101t52 139.5t-52 139.5t-141.5 101.5t-195.5 37.5zM962 307q0 97 -94 168q6 -24 6 -49q0 -82 -56 -151t-152.5 -109t-210.5 -40q-39 0 -78 6
q100 -71 241 -71q73 0 140 21q10 -5 17.5 -9t13.5 -6.5t19 -6.5q17 -4 37.5 -6.5t32.5 -2.5h12q-20 14 -43 46q-4 6 -7 22q57 34 89.5 83t32.5 105zM224 439q0 -23 16.5 -39.5t39.5 -16.5t39.5 16.5t16.5 39.5t-16.5 39.5t-39.5 16.5t-39.5 -16.5t-16.5 -39.5zM394 439
q0 -23 16.5 -39.5t40 -16.5t40 16.5t16.5 39.5t-16.5 39.5t-40 16.5t-40 -16.5t-16.5 -39.5zM565 439q0 -23 16.5 -39.5t39.5 -16.5t39.5 16.5t16.5 39.5t-16.5 39.5t-39.5 16.5t-39.5 -16.5t-16.5 -39.5z" />
    <glyph glyph-name="uniE69C" unicode="&#xe69c;" 
d="M867 140l11 -148l-151 93q-18 -2 -33 -2q-110 0 -189.5 69.5t-79.5 167.5q0 97 79 164.5t190 67.5q110 0 188 -68.5t78 -165.5q0 -53 -24.5 -99t-68.5 -79zM694 494q-81 0 -138.5 -50.5t-57.5 -122t57.5 -122.5t138.5 -51q11 0 24 2l102 -59l2 99q68 52 68 131
q0 72 -57.5 122.5t-138.5 50.5zM371 312q0 -78 47 -146h-2q-19 0 -43 2l-201 -120l15 192q-58 43 -90.5 103t-32.5 128q0 83 47 153t128.5 111t176.5 41q105 0 191.5 -49.5t128.5 -129.5q-18 2 -35 2q-89 0 -165.5 -38.5t-120.5 -104.5t-44 -144z" />
    <glyph glyph-name="uniE69D" unicode="&#xe69d;" 
d="M75 301h143v-368h-143v368zM320 438h143v-505h-143v505zM578 359h143v-426h-143v426zM806 550h143v-617h-143v617zM877.5 835q-26.5 0 -45.5 -18.5t-19 -45.5q0 -2 1 -5t1 -4l-128 -124q-17 11 -34 11q-38 0 -56 -35l-145 28q-6 21 -22.5 33.5t-37.5 12.5
q-23 0 -40.5 -14.5t-21.5 -37.5l-145 -87q-18 14 -38 14q-27 0 -45.5 -19t-18.5 -45.5t18.5 -45t45.5 -18.5q23 0 40 14.5t22 37.5l145 87q18 -14 38 -14q25 0 44 18l167 -33q20 -23 48 -23q24 0 41 15.5t21 38.5l145 135q12 -4 19 -4q27 0 45.5 19t18.5 45.5t-18.5 45
t-45 18.5z" />
    <glyph glyph-name="uniE69E" unicode="&#xe69e;" 
d="M845 834h-671q-28 0 -50 -12t-33 -29.5t-17.5 -34.5t-8.5 -29l-1 -12v-679q0 -11 3.5 -22t10 -19.5t14.5 -16.5t17.5 -14t18.5 -11.5t17.5 -9t15 -6t9.5 -3.5l4 -2h498l288 285v507q0 24 -11.5 44t-28.5 31.5t-34 19.5t-29 10zM890 247q0 -16 -9 -25.5t-19 -10.5l-9 -2
h-128q-18 0 -28.5 -7.5t-11.5 -15.5l-1 -8v-127q0 -12 -2.5 -21.5t-5.5 -14t-6.5 -7t-5.5 -2.5l-2 -1h-472q-22 0 -36.5 11t-17.5 21l-2 11v652q0 25 14 42t28 22l14 4q583 -3 637 -3q23 0 39 -16t20 -32l5 -16v-454h-1zM890 247zM756 523q0 -15 -10.5 -25t-24.5 -10h-422
q-14 0 -24 10t-10 25q0 14 10 24.5t24 10.5h422q14 0 24.5 -10.5t10.5 -24.5v0zM756 523zM681 345q0 -13 -10 -23t-24 -10h-349q-14 0 -23.5 10t-9.5 23q0 15 9.5 24.5t23.5 9.5h349q15 0 24.5 -9.5t9.5 -24.5v0zM681 345z" />
    <glyph glyph-name="uniE69F" unicode="&#xe69f;" 
d="M506 -47q-91 0 -174 35.5t-143 95.5t-95.5 143t-35.5 174t35.5 174t95.5 143t143 95.5t174 35.5t174 -35.5t142.5 -95.5t95 -143t35.5 -174t-35.5 -174t-95 -143t-142.5 -95.5t-174 -35.5zM505.5 768q-99.5 0 -184 -49.5t-133.5 -133.5t-49 -184t49 -184t133.5 -133
t184 -49t184 49t133.5 133t49 184t-49 184t-133.5 133.5t-184 49.5zM696 360h-217q-6 0 -10 4t-4 10v271q0 6 4 10t10 4h54q5 0 9 -4t4 -10v-203h150q5 0 9 -4t4 -10v-54q0 -6 -4 -10t-9 -4z" />
    <glyph glyph-name="uniE6A0" unicode="&#xe6a0;" 
d="M512 763q103 0 190 -51t138 -138t51 -190t-51 -190t-138 -138t-190 -51t-190 51t-138 138t-51 190t51 190t138 138t190 51zM512 826q-90 0 -172 -35t-141 -94t-94 -141t-35 -172t35 -172t94 -141t141 -94t172 -35t172 35t141 94t94 141t35 172t-35 172t-94 141t-141 94
t-172 35zM761 347h-498q-15 0 -26 11t-11 26t11 26t26 11h498q15 0 26 -11t11 -26t-11 -26t-26 -11z" />
    <glyph glyph-name="uniE6A1" unicode="&#xe6a1;" 
d="M512 -51q-110 0 -204 54.5t-148.5 148t-54.5 204.5q0 103 49 193.5t136 147.5h1q2 2 5 3l1 1q8 4 17 4q17 0 28.5 -11.5t11.5 -27.5q0 -23 -23 -36v-1q-69 -46 -108 -118.5t-39 -154.5q0 -89 44 -164.5t119.5 -119.5t164.5 -44t164.5 44t119.5 119.5t44 164.5
q0 82 -39 154.5t-108 118.5v1q-23 13 -23 36q0 16 11.5 27.5t27.5 11.5q10 0 18 -4q1 -1 2 -1q2 -1 3 -2l1 -1q87 -56 136.5 -146.5t49.5 -194.5q0 -111 -54.5 -204.5t-148.5 -148t-204 -54.5zM512 288q-16 0 -27.5 11.5t-11.5 27.5v453q0 16 11.5 27.5t27.5 11.5
t27.5 -11.5t11.5 -27.5v-453q0 -16 -11.5 -27.5t-27.5 -11.5z" />
    <glyph glyph-name="uniE6A2" unicode="&#xe6a2;" 
d="M383 500q0 -53 38.5 -91.5t91.5 -38t91.5 38.5t38.5 91q0 52 -38.5 90t-91.5 38q-54 0 -92 -37.5t-38 -90.5zM512 -66q-29 39 -89 118.5t-105.5 141.5t-84.5 120q-41 60 -53.5 129t3.5 132t52.5 117t96 90.5t130.5 47.5q78 12 151 -10.5t125.5 -70t83 -117.5t27.5 -149
q-4 -98 -63 -179q-33 -45 -261 -354q-1 -1 -13 -16z" />
    <glyph glyph-name="uniE6A3" unicode="&#xe6a3;" horiz-adv-x="1025" 
d="M830 702q-63 64 -145.5 98t-172.5 34t-172 -34t-146 -98t-98 -146t-34 -172t34 -172t98 -146t146 -98t172 -34t172.5 34t145.5 98q87 86 117.5 202t0 232t-117.5 202v0zM789 107q-56 -55 -127.5 -84.5t-149.5 -29.5t-149.5 29.5t-127 85t-85 127t-29.5 149.5t29.5 149.5
t85 127t127 85t150 29.5t149.5 -29.5t127 -84.5q75 -75 101.5 -176t0 -202t-101.5 -176v0zM707 274l-156 90v245q0 16 -11 26.5t-26.5 10.5t-26.5 -10.5t-11 -26.5v-263q0 -15 29 -32q2 -3 16 -11l155 -94q14 -8 27 -4t21 18q7 13 2 28t-19 23v0zM707 274z" />
    <glyph glyph-name="uniE6A4" unicode="&#xe6a4;" 
d="M887 682h-212v71q0 22 -15.5 37t-36.5 15h-222q-21 0 -36.5 -15t-15.5 -37v-71h-212q-30 0 -50.5 -21t-20.5 -51v-558q0 -29 20.5 -50t50.5 -21h750q30 0 50.5 21t20.5 50v558q0 30 -20.5 51t-50.5 21zM386 753q0 6 4.5 10.5t10.5 4.5h222q6 0 10.5 -4.5t4.5 -10.5v-70
h-252v70zM942 309h-321v-15q0 -7 -5 -12t-12 -5h-181q-7 0 -12 5t-5 12v15h-332v32h332v15q0 7 5 12t12 5h181q7 0 12 -5t5 -12v-15h321v-32z" />
    <glyph glyph-name="uniE6A5" unicode="&#xe6a5;" 
d="M875 163v280h-335v167h84v224h-224v-224h84v-167h-335v-280h-84v-223h223v223h-83v224h279v-224h-84v-223h224v223h-84v224h279v-224h-83v-223h223v223h-84z" />
    <glyph glyph-name="uniE6A6" unicode="&#xe6a6;" 
d="M512 867q-98 0 -187.5 -38.5t-154 -103t-103 -154t-38.5 -187.5t38.5 -187.5t103 -154t154 -103t187.5 -38.5t187.5 38.5t154 103t103 154t38.5 187.5t-38.5 187.5t-103 154t-154 103t-187.5 38.5zM788 384q0 -14 -10 -24.5t-25 -10.5h-206v-206q0 -15 -10.5 -25
t-24.5 -10t-24.5 10t-10.5 25v206h-206q-15 0 -25 10.5t-10 24.5t10 24.5t25 10.5h206v206q0 15 10.5 25t24.5 10t24.5 -10t10.5 -25v-206h206q15 0 25 -10.5t10 -24.5z" />
    <glyph glyph-name="uniE6A7" unicode="&#xe6a7;" 
d="M952.5 473q-10.5 20 -31.5 26l-562 170q-7 2 -15 2q-18 0 -32.5 -10.5t-19.5 -27.5l-50 -167h-123q-23 0 -38.5 -15.5t-15.5 -38.5v-453q0 -23 15.5 -38.5t38.5 -15.5h712q22 0 38 15.5t16 38.5v234l72 239q6 21 -4.5 41zM119 445h712q13 0 22.5 -9.5t9.5 -23.5v-86h-777
v86q0 14 9.5 23.5t23.5 9.5zM831 -74h-712q-14 0 -23.5 9.5t-9.5 23.5v324h777v-324q0 -14 -9.5 -23.5t-22.5 -9.5zM936 438l-51 -171v145q0 23 -16 38.5t-38 15.5h-567l49 161q3 10 11.5 16.5t19.5 6.5q4 0 9 -2l562 -169q12 -4 18.5 -16t2.5 -25zM566 196h-410
q-4 0 -7.5 -3.5t-3.5 -7.5t3.5 -7.5t7.5 -3.5h410q4 0 7 3.5t3 7.5t-3 7.5t-7 3.5zM458 89h-302q-4 0 -7.5 -3.5t-3.5 -8t3.5 -7.5t7.5 -3h302q4 0 7.5 3t3.5 7.5t-3.5 8t-7.5 3.5zM770 196h-97q-14 0 -23.5 -9.5t-9.5 -23t9.5 -23t23.5 -9.5h97q13 0 22.5 9.5t9.5 23
t-9.5 23t-22.5 9.5z" />
    <glyph glyph-name="uniE6A8" unicode="&#xe6a8;" 
d="M949 357q0 -8 -5.5 -14t-14.5 -6h-180q-15 0 -19 15l-47 175l-147 -538q-4 -15 -20 -15h-1q-16 1 -18 16l-117 682l-77 -320q-4 -15 -20 -15h-188q-8 0 -14 6t-6 14t6 14t14 6h173l96 399q4 16 20 15q17 -1 19 -17l118 -688l143 523q4 15 20 15q15 0 19 -15l61 -232h165
q9 0 14.5 -6t5.5 -14z" />
    <glyph glyph-name="uniE6A9" unicode="&#xe6a9;" 
d="M512 823q-89 0 -170.5 -35t-140 -93.5t-93.5 -140t-35 -170.5t35 -170.5t93.5 -140t140 -93.5t170.5 -35t170.5 35t140 93.5t93.5 140t35 170.5t-35 170.5t-93.5 140t-140 93.5t-170.5 35zM321 660q0 16 5 22q2 2 4 5t3.5 4.5t4.5 1.5q2 0 8 3t8 3h310q11 0 17 -6
q4 0 7.5 -3.5t3.5 -7.5q0 -2 3 -9t3 -13v-51q0 -11 -6 -17q0 -3 -3 -5.5t-3 -5.5q-2 0 -8 -3t-8 -3h-321q-11 0 -17 6q-6 0 -6 11q0 3 -2.5 8.5t-2.5 8.5v51zM765 136q0 -22 -5 -33q-3 -3 -9 -11.5t-8 -11.5q-12 -11 -34 -11h-388q-23 0 -34 11.5t-17 22.5t-6 33v293
q0 17 12 39q0 12 11 23l56 51h343l51 -51l17 -17q11 -11 11 -39v-299zM557 423h-90v-84h-79v-84h79v-85h90v85h79v84h-79v84z" />
    <glyph glyph-name="uniE6AA" unicode="&#xe6aa;" horiz-adv-x="1044" 
d="M845 66q-65 -64 -149 -98t-175.5 -34t-175.5 34t-149 98t-99.5 146t-34.5 172t34.5 172t99.5 146t149 98t175.5 34t175.5 -34t149 -98q88 -86 119 -202t0 -232t-119 -202zM797 652q-55 55 -126.5 84.5t-149.5 29.5t-149.5 -29.5t-127 -84.5t-85 -126.5t-29.5 -150
t29.5 -149.5t85 -126.5t126.5 -85t149.5 -29.5t150 29.5t126.5 85.5q75 75 101.5 175.5t0 201t-101.5 175.5zM733 342h-178v-179q0 -10 -7.5 -17.5t-18.5 -7.5h-17q-10 0 -17.5 7.5t-7.5 17.5v179h-179q-10 0 -17.5 7t-7.5 18v17q0 11 7.5 18t17.5 7h179v179q0 10 7.5 17.5
t17.5 7.5h17q11 0 18.5 -7.5t7.5 -17.5v-179h178q10 0 17.5 -7t7.5 -18v-17q0 -11 -7.5 -18t-17.5 -7z" />
    <glyph glyph-name="uniE6AB" unicode="&#xe6ab;" 
d="M517.5 823q-90.5 0 -173 -35t-142 -94.5t-94.5 -142t-35 -173t35 -172.5t94.5 -142t142 -95t173 -35t172.5 35t142 95t95 142t35 172.5t-35 173t-95 142t-142 94.5t-172.5 35zM686 413q0 -10 -6.5 -16.5t-15.5 -6.5h-113v-68h113q9 0 15.5 -6.5t6.5 -16.5v-22
q0 -10 -6.5 -16.5t-15.5 -6.5h-113v-67q0 -10 -6.5 -16.5t-16.5 -6.5h-22q-10 0 -16.5 6.5t-6.5 16.5v67h-113q-9 0 -15.5 6.5t-6.5 16.5v22q0 10 6.5 16.5t15.5 6.5h113v68h-113q-9 0 -15.5 6.5t-6.5 16.5v22q0 10 6.5 16.5t15.5 6.5h111l-103 104q-7 6 -7 15.5t7 16.5
l16 16q7 6 16.5 6t15.5 -6l91 -91l92 91q6 6 15.5 6t16.5 -6l16 -16q7 -7 7 -16.5t-7 -15.5l-104 -104h111q9 0 15.5 -6.5t6.5 -16.5v-22z" />
    <glyph glyph-name="uniE6AC" unicode="&#xe6ac;" 
d="M203 708h616q17 0 29.5 12t12.5 29.5t-12.5 30t-29.5 12.5h-616q-18 0 -30 -12.5t-12 -30t12 -29.5t30 -12zM880 666h-739l-78 -210q0 -47 32.5 -79.5t79 -32.5t79.5 32.5t33 79.5q0 -47 32.5 -79.5t79 -32.5t79.5 32.5t33 79.5q0 -47 32.5 -79.5t79 -32.5t79.5 32.5
t33 79.5q0 -47 33 -79.5t79 -32.5t79 32.5t33 79.5zM833 302q-5 1 -12 2h-3l-5 2q-12 2 -22 6v-207h-560v207q-11 -4 -23 -7q-1 0 -2.5 -0.5t-2.5 -0.5h-1h-1q-8 -1 -12 -2q-8 -1 -14 -1q-14 0 -28 3v-283q0 -17 12 -29.5t30 -12.5h644q17 0 29.5 12.5t12.5 29.5v283
q-14 -3 -28 -3q-6 0 -14 1zM833 302z" />
    <glyph glyph-name="uniE6AD" unicode="&#xe6ad;" 
d="M512 831q-91 0 -174 -35t-143 -95t-95 -143t-35 -174t35 -174t95 -143t143 -95t174 -35t174 35t143 95t95 143t35 174t-35 174t-95 143t-143 95t-174 35zM722 187q0 -17 -12 -29t-29 -12h-338q-17 0 -29 12t-12 29v215q0 17 12 29t29 12h33v92q0 44 30.5 74.5t73.5 30.5
h64q43 0 73.5 -30.5t30.5 -74.5v-92h33q17 0 29 -12t12 -29v-215zM544 592h-64q-23 0 -39.5 -16.5t-16.5 -40.5v-92h177v92q0 24 -17 40.5t-40 16.5z" />
    <glyph glyph-name="uniE6AE" unicode="&#xe6ae;" 
d="M76 389q1 78 58 138q3 3 23 29q71 89 175 176q4 3 24 20t32 26q42 33 96 40q98 12 172 -56q11 -10 33 -28t26 -22q91 -77 169 -177q3 -4 13 -15.5t15 -18.5q45 -67 33 -149q-9 -62 -55 -111q-10 -11 -27 -31.5t-21 -25.5q-63 -72 -111 -115q-10 -9 -65 -54
q-32 -27 -38 -31q-66 -45 -148 -33q-63 10 -112 56q-2 2 -26 20q-78 62 -152 148q-30 35 -52 62q-24 29 -30 38q-31 48 -32 114zM439 311v-6v-166q0 -14 8 -22.5t22 -8.5h86q8 0 14 6q16 16 16 41v151q0 5 6 5h163q4 0 8 1q11 0 18.5 7.5t7.5 17.5v92q0 9 -6 17
q-8 11 -26 11h-165h-6v7v164q0 32 -32 32h-82q-9 0 -15 -3q-17 -7 -17 -28v-53v-61v-52v-6h-6h-76h-90q-15 0 -23 -8.5t-8 -22.5v-42v-42q0 -12 6 -20q8 -11 26 -11h165h6z" />
    </font>
</defs>
</svg>
